G04 #@! TF.FileFunction,Copper,L2,Bot,Signal*
%FSLAX46Y46*%
G04 Gerber Fmt 4.6, Leading zero omitted, Abs format (unit mm)*
G04 Created by KiCad (PCBNEW 4.0.7) date Wed Nov 22 16:36:53 2017*
%MOMM*%
%LPD*%
G01*
G04 APERTURE LIST*
%ADD10C,0.100000*%
%ADD11O,1.500000X2.000000*%
%ADD12R,1.500000X2.000000*%
%ADD13R,1.800000X1.800000*%
%ADD14O,1.800000X1.800000*%
%ADD15R,1.600000X1.600000*%
%ADD16C,1.600000*%
%ADD17R,2.200000X2.200000*%
%ADD18O,2.200000X2.200000*%
%ADD19R,1.700000X1.700000*%
%ADD20O,1.700000X1.700000*%
%ADD21C,1.400000*%
%ADD22O,1.400000X1.400000*%
%ADD23R,1.600000X2.400000*%
%ADD24O,1.600000X2.400000*%
%ADD25C,0.406400*%
%ADD26C,0.203200*%
G04 APERTURE END LIST*
D10*
D11*
X48580000Y4480000D03*
X48580000Y7520000D03*
X46040000Y7520000D03*
X46040000Y4480000D03*
D12*
X38420000Y4480000D03*
D11*
X38420000Y7520000D03*
X40960000Y4480000D03*
X40960000Y7520000D03*
X43500000Y4480000D03*
X43500000Y7520000D03*
D13*
X36500000Y30000000D03*
D14*
X39040000Y30000000D03*
X41580000Y30000000D03*
D15*
X37500000Y20000000D03*
D16*
X35000000Y20000000D03*
D17*
X32500000Y14000000D03*
D18*
X40120000Y14000000D03*
D15*
X54500000Y33000000D03*
D16*
X54500000Y30500000D03*
D15*
X46500000Y20000000D03*
D16*
X49000000Y20000000D03*
D19*
X53000000Y39000000D03*
D20*
X55540000Y39000000D03*
D21*
X30500000Y37500000D03*
D22*
X30500000Y29880000D03*
D21*
X30500000Y47500000D03*
D22*
X30500000Y39880000D03*
D21*
X31500000Y26000000D03*
D22*
X39120000Y26000000D03*
D16*
X46500000Y26000000D03*
X49000000Y26000000D03*
X7000000Y13000000D03*
X7000000Y10500000D03*
X23500000Y5500000D03*
X23500000Y8000000D03*
D15*
X19000000Y33000000D03*
D16*
X19000000Y30500000D03*
X16500000Y21000000D03*
X14000000Y21000000D03*
D17*
X52000000Y14000000D03*
D18*
X44380000Y14000000D03*
D17*
X47500000Y30000000D03*
D18*
X47500000Y37620000D03*
D19*
X18000000Y39000000D03*
D20*
X20540000Y39000000D03*
D19*
X7500000Y39000000D03*
D20*
X10040000Y39000000D03*
D21*
X25500000Y36500000D03*
D22*
X25500000Y28880000D03*
D21*
X14500000Y26000000D03*
D22*
X22120000Y26000000D03*
D21*
X19000000Y17000000D03*
D22*
X11380000Y17000000D03*
D21*
X10000000Y27000000D03*
D22*
X10000000Y34620000D03*
D23*
X11500000Y5500000D03*
D24*
X19120000Y13120000D03*
X14040000Y5500000D03*
X16580000Y13120000D03*
X16580000Y5500000D03*
X14040000Y13120000D03*
X19120000Y5500000D03*
X11500000Y13120000D03*
D25*
X47500000Y30000000D02*
X46400000Y30000000D01*
X46400000Y30000000D02*
X46500000Y29900000D01*
X46500000Y29900000D02*
X46500000Y26000000D01*
X41580000Y30000000D02*
X47500000Y30000000D01*
X11500000Y13120000D02*
X11500000Y10500000D01*
X7000000Y10500000D02*
X11500000Y10500000D01*
X11500000Y10500000D02*
X27000000Y10500000D01*
X33500000Y22500000D02*
X46500000Y22500000D01*
X28000000Y17000000D02*
X33500000Y22500000D01*
X28000000Y11500000D02*
X28000000Y17000000D01*
X27000000Y10500000D02*
X28000000Y11500000D01*
X46500000Y20000000D02*
X46500000Y22500000D01*
X46500000Y22500000D02*
X46500000Y26000000D01*
X46500000Y20000000D02*
X46500000Y17500000D01*
X50000000Y14000000D02*
X52000000Y14000000D01*
X46500000Y17500000D02*
X50000000Y14000000D01*
X29500000Y9000000D02*
X29500000Y16000000D01*
X28500000Y8000000D02*
X29500000Y9000000D01*
X23500000Y8000000D02*
X28500000Y8000000D01*
X33500000Y20000000D02*
X35000000Y20000000D01*
X29500000Y16000000D02*
X33500000Y20000000D01*
X19120000Y5500000D02*
X19120000Y7120000D01*
X20000000Y8000000D02*
X23500000Y8000000D01*
X19120000Y7120000D02*
X20000000Y8000000D01*
X35000000Y20000000D02*
X35000000Y17000000D01*
X38000000Y14000000D02*
X40120000Y14000000D01*
X35000000Y17000000D02*
X38000000Y14000000D01*
X30500000Y37500000D02*
X30500000Y39880000D01*
X31500000Y29880000D02*
X31500000Y26000000D01*
X30500000Y29880000D02*
X31500000Y29880000D01*
X31500000Y29880000D02*
X32000000Y29880000D01*
X32000000Y29880000D02*
X36380000Y29880000D01*
X36380000Y29880000D02*
X36500000Y30000000D01*
X55540000Y39000000D02*
X55540000Y34040000D01*
X55540000Y34040000D02*
X54500000Y33000000D01*
X54500000Y33000000D02*
X52120000Y33000000D01*
X52120000Y33000000D02*
X47500000Y37620000D01*
X39040000Y30000000D02*
X39040000Y36540000D01*
X40120000Y37620000D02*
X47500000Y37620000D01*
X39040000Y36540000D02*
X40120000Y37620000D01*
X39120000Y26000000D02*
X39120000Y29920000D01*
X39120000Y29920000D02*
X39040000Y30000000D01*
X18000000Y39000000D02*
X18000000Y34000000D01*
X18000000Y34000000D02*
X19000000Y33000000D01*
X14500000Y26000000D02*
X14500000Y28500000D01*
X16500000Y30500000D02*
X19000000Y30500000D01*
X14500000Y28500000D02*
X16500000Y30500000D01*
X19000000Y30500000D02*
X23880000Y30500000D01*
X23880000Y30500000D02*
X25500000Y28880000D01*
X16500000Y21000000D02*
X19500000Y21000000D01*
X22120000Y23620000D02*
X22120000Y26000000D01*
X19500000Y21000000D02*
X22120000Y23620000D01*
X16500000Y17000000D02*
X19000000Y17000000D01*
X16500000Y21000000D02*
X16500000Y17000000D01*
X16500000Y17000000D02*
X16500000Y13200000D01*
X16500000Y13200000D02*
X16580000Y13120000D01*
X14000000Y21000000D02*
X13000000Y21000000D01*
X10000000Y24000000D02*
X10000000Y27000000D01*
X13000000Y21000000D02*
X10000000Y24000000D01*
X14000000Y17000000D02*
X11380000Y17000000D01*
X14000000Y21000000D02*
X14000000Y17000000D01*
X14000000Y17000000D02*
X14000000Y13160000D01*
X14000000Y13160000D02*
X14040000Y13120000D01*
X8380000Y34620000D02*
X10000000Y34620000D01*
X7500000Y35500000D02*
X8380000Y34620000D01*
X7500000Y39000000D02*
X7500000Y35500000D01*
X48580000Y4730000D02*
X48580000Y7270000D01*
X48580000Y7270000D02*
X48580000Y9800000D01*
X48580000Y9800000D02*
X44380000Y14000000D01*
X38420000Y4730000D02*
X38420000Y7270000D01*
X38420000Y7270000D02*
X37230000Y7270000D01*
X32500000Y12000000D02*
X32500000Y14000000D01*
X37230000Y7270000D02*
X32500000Y12000000D01*
X11500000Y5500000D02*
X14040000Y5500000D01*
D26*
G36*
X59620200Y379800D02*
X379800Y379800D01*
X379800Y6700000D01*
X10389229Y6700000D01*
X10389229Y4300000D01*
X10410482Y4187048D01*
X10477237Y4083308D01*
X10579093Y4013713D01*
X10700000Y3989229D01*
X12300000Y3989229D01*
X12412952Y4010482D01*
X12516692Y4077237D01*
X12586287Y4179093D01*
X12610771Y4300000D01*
X12610771Y4992000D01*
X12950818Y4992000D01*
X13019298Y4647730D01*
X13258788Y4289307D01*
X13617211Y4049817D01*
X14040000Y3965719D01*
X14462789Y4049817D01*
X14821212Y4289307D01*
X15060702Y4647730D01*
X15081385Y4751715D01*
X15233768Y4751715D01*
X15469527Y4263046D01*
X15874345Y3901796D01*
X15973479Y3827560D01*
X16180000Y3908131D01*
X16180000Y4966600D01*
X16980000Y4966600D01*
X16980000Y3908131D01*
X17186521Y3827560D01*
X17285655Y3901796D01*
X17690473Y4263046D01*
X17926232Y4751715D01*
X17811741Y4966600D01*
X16980000Y4966600D01*
X16180000Y4966600D01*
X15348259Y4966600D01*
X15233768Y4751715D01*
X15081385Y4751715D01*
X15144800Y5070519D01*
X15144800Y5929481D01*
X18015200Y5929481D01*
X18015200Y5070519D01*
X18099298Y4647730D01*
X18338788Y4289307D01*
X18697211Y4049817D01*
X19120000Y3965719D01*
X19542789Y4049817D01*
X19901212Y4289307D01*
X19944308Y4353805D01*
X22919491Y4353805D01*
X23012209Y4148094D01*
X23566692Y4064332D01*
X23987791Y4148094D01*
X24080509Y4353805D01*
X23500000Y4934315D01*
X22919491Y4353805D01*
X19944308Y4353805D01*
X20140702Y4647730D01*
X20224800Y5070519D01*
X20224800Y5433308D01*
X22064332Y5433308D01*
X22148094Y5012209D01*
X22353805Y4919491D01*
X22934315Y5500000D01*
X24065685Y5500000D01*
X24646195Y4919491D01*
X24851906Y5012209D01*
X24935668Y5566692D01*
X24851906Y5987791D01*
X24646195Y6080509D01*
X24065685Y5500000D01*
X22934315Y5500000D01*
X22353805Y6080509D01*
X22148094Y5987791D01*
X22064332Y5433308D01*
X20224800Y5433308D01*
X20224800Y5929481D01*
X20140702Y6352270D01*
X19901212Y6710693D01*
X19628000Y6893247D01*
X19628000Y6909580D01*
X20210420Y7492000D01*
X22514506Y7492000D01*
X22562850Y7374999D01*
X22873364Y7063943D01*
X23263587Y6901908D01*
X23012209Y6851906D01*
X22919491Y6646195D01*
X23500000Y6065685D01*
X24080509Y6646195D01*
X23987791Y6851906D01*
X23702365Y6895023D01*
X23718794Y6895009D01*
X24125001Y7062850D01*
X24436057Y7373364D01*
X24485319Y7492000D01*
X28500000Y7492000D01*
X28694403Y7530669D01*
X28859210Y7640790D01*
X29859211Y8640790D01*
X29969331Y8805597D01*
X30008000Y9000000D01*
X30008000Y15100000D01*
X31089229Y15100000D01*
X31089229Y12900000D01*
X31110482Y12787048D01*
X31177237Y12683308D01*
X31279093Y12613713D01*
X31400000Y12589229D01*
X31992000Y12589229D01*
X31992000Y12000000D01*
X32030669Y11805597D01*
X32140790Y11640790D01*
X36870790Y6910790D01*
X37035596Y6800669D01*
X37230000Y6762000D01*
X37498133Y6762000D01*
X37674144Y6498581D01*
X37912000Y6339651D01*
X37912000Y5790771D01*
X37670000Y5790771D01*
X37557048Y5769518D01*
X37453308Y5702763D01*
X37383713Y5600907D01*
X37359229Y5480000D01*
X37359229Y3480000D01*
X37380482Y3367048D01*
X37447237Y3263308D01*
X37549093Y3193713D01*
X37670000Y3169229D01*
X39170000Y3169229D01*
X39282952Y3190482D01*
X39386692Y3257237D01*
X39456287Y3359093D01*
X39480771Y3480000D01*
X39480771Y3777703D01*
X39702425Y3777703D01*
X39971239Y3330879D01*
X40385179Y2997891D01*
X40585000Y3082522D01*
X40585000Y3980000D01*
X41335000Y3980000D01*
X41335000Y3082522D01*
X41534821Y2997891D01*
X41948761Y3330879D01*
X42217575Y3777703D01*
X42242425Y3777703D01*
X42511239Y3330879D01*
X42925179Y2997891D01*
X43125000Y3082522D01*
X43125000Y3980000D01*
X43875000Y3980000D01*
X43875000Y3082522D01*
X44074821Y2997891D01*
X44488761Y3330879D01*
X44757575Y3777703D01*
X44782425Y3777703D01*
X45051239Y3330879D01*
X45465179Y2997891D01*
X45665000Y3082522D01*
X45665000Y3980000D01*
X46415000Y3980000D01*
X46415000Y3082522D01*
X46614821Y2997891D01*
X47028761Y3330879D01*
X47297575Y3777703D01*
X47200447Y3980000D01*
X46415000Y3980000D01*
X45665000Y3980000D01*
X44879553Y3980000D01*
X44782425Y3777703D01*
X44757575Y3777703D01*
X44660447Y3980000D01*
X43875000Y3980000D01*
X43125000Y3980000D01*
X42339553Y3980000D01*
X42242425Y3777703D01*
X42217575Y3777703D01*
X42120447Y3980000D01*
X41335000Y3980000D01*
X40585000Y3980000D01*
X39799553Y3980000D01*
X39702425Y3777703D01*
X39480771Y3777703D01*
X39480771Y5182297D01*
X39702425Y5182297D01*
X39799553Y4980000D01*
X40585000Y4980000D01*
X40585000Y5877478D01*
X41335000Y5877478D01*
X41335000Y4980000D01*
X42120447Y4980000D01*
X42217575Y5182297D01*
X42242425Y5182297D01*
X42339553Y4980000D01*
X43125000Y4980000D01*
X43125000Y5877478D01*
X43875000Y5877478D01*
X43875000Y4980000D01*
X44660447Y4980000D01*
X44757575Y5182297D01*
X44782425Y5182297D01*
X44879553Y4980000D01*
X45665000Y4980000D01*
X45665000Y5877478D01*
X46415000Y5877478D01*
X46415000Y4980000D01*
X47200447Y4980000D01*
X47297575Y5182297D01*
X47028761Y5629121D01*
X46614821Y5962109D01*
X46415000Y5877478D01*
X45665000Y5877478D01*
X45465179Y5962109D01*
X45051239Y5629121D01*
X44782425Y5182297D01*
X44757575Y5182297D01*
X44488761Y5629121D01*
X44074821Y5962109D01*
X43875000Y5877478D01*
X43125000Y5877478D01*
X42925179Y5962109D01*
X42511239Y5629121D01*
X42242425Y5182297D01*
X42217575Y5182297D01*
X41948761Y5629121D01*
X41534821Y5962109D01*
X41335000Y5877478D01*
X40585000Y5877478D01*
X40385179Y5962109D01*
X39971239Y5629121D01*
X39702425Y5182297D01*
X39480771Y5182297D01*
X39480771Y5480000D01*
X39459518Y5592952D01*
X39392763Y5696692D01*
X39290907Y5766287D01*
X39170000Y5790771D01*
X38928000Y5790771D01*
X38928000Y6339651D01*
X39165856Y6498581D01*
X39379086Y6817703D01*
X39702425Y6817703D01*
X39971239Y6370879D01*
X40385179Y6037891D01*
X40585000Y6122522D01*
X40585000Y7020000D01*
X41335000Y7020000D01*
X41335000Y6122522D01*
X41534821Y6037891D01*
X41948761Y6370879D01*
X42217575Y6817703D01*
X42242425Y6817703D01*
X42511239Y6370879D01*
X42925179Y6037891D01*
X43125000Y6122522D01*
X43125000Y7020000D01*
X43875000Y7020000D01*
X43875000Y6122522D01*
X44074821Y6037891D01*
X44488761Y6370879D01*
X44757575Y6817703D01*
X44782425Y6817703D01*
X45051239Y6370879D01*
X45465179Y6037891D01*
X45665000Y6122522D01*
X45665000Y7020000D01*
X46415000Y7020000D01*
X46415000Y6122522D01*
X46614821Y6037891D01*
X47028761Y6370879D01*
X47297575Y6817703D01*
X47200447Y7020000D01*
X46415000Y7020000D01*
X45665000Y7020000D01*
X44879553Y7020000D01*
X44782425Y6817703D01*
X44757575Y6817703D01*
X44660447Y7020000D01*
X43875000Y7020000D01*
X43125000Y7020000D01*
X42339553Y7020000D01*
X42242425Y6817703D01*
X42217575Y6817703D01*
X42120447Y7020000D01*
X41335000Y7020000D01*
X40585000Y7020000D01*
X39799553Y7020000D01*
X39702425Y6817703D01*
X39379086Y6817703D01*
X39394508Y6840783D01*
X39474800Y7244437D01*
X39474800Y7795563D01*
X39394508Y8199217D01*
X39379087Y8222297D01*
X39702425Y8222297D01*
X39799553Y8020000D01*
X40585000Y8020000D01*
X40585000Y8917478D01*
X41335000Y8917478D01*
X41335000Y8020000D01*
X42120447Y8020000D01*
X42217575Y8222297D01*
X42242425Y8222297D01*
X42339553Y8020000D01*
X43125000Y8020000D01*
X43125000Y8917478D01*
X43875000Y8917478D01*
X43875000Y8020000D01*
X44660447Y8020000D01*
X44757575Y8222297D01*
X44782425Y8222297D01*
X44879553Y8020000D01*
X45665000Y8020000D01*
X45665000Y8917478D01*
X46415000Y8917478D01*
X46415000Y8020000D01*
X47200447Y8020000D01*
X47297575Y8222297D01*
X47028761Y8669121D01*
X46614821Y9002109D01*
X46415000Y8917478D01*
X45665000Y8917478D01*
X45465179Y9002109D01*
X45051239Y8669121D01*
X44782425Y8222297D01*
X44757575Y8222297D01*
X44488761Y8669121D01*
X44074821Y9002109D01*
X43875000Y8917478D01*
X43125000Y8917478D01*
X42925179Y9002109D01*
X42511239Y8669121D01*
X42242425Y8222297D01*
X42217575Y8222297D01*
X41948761Y8669121D01*
X41534821Y9002109D01*
X41335000Y8917478D01*
X40585000Y8917478D01*
X40385179Y9002109D01*
X39971239Y8669121D01*
X39702425Y8222297D01*
X39379087Y8222297D01*
X39165856Y8541419D01*
X38823654Y8770071D01*
X38420000Y8850363D01*
X38016346Y8770071D01*
X37674144Y8541419D01*
X37445492Y8199217D01*
X37374766Y7843654D01*
X33008000Y12210420D01*
X33008000Y12589229D01*
X33600000Y12589229D01*
X33712952Y12610482D01*
X33816692Y12677237D01*
X33886287Y12779093D01*
X33910771Y12900000D01*
X33910771Y15100000D01*
X33889518Y15212952D01*
X33822763Y15316692D01*
X33720907Y15386287D01*
X33600000Y15410771D01*
X31400000Y15410771D01*
X31287048Y15389518D01*
X31183308Y15322763D01*
X31113713Y15220907D01*
X31089229Y15100000D01*
X30008000Y15100000D01*
X30008000Y15789580D01*
X33710420Y19492000D01*
X34014506Y19492000D01*
X34062850Y19374999D01*
X34373364Y19063943D01*
X34492000Y19014681D01*
X34492000Y17000000D01*
X34530669Y16805597D01*
X34640790Y16640790D01*
X37640790Y13640790D01*
X37805597Y13530669D01*
X38000000Y13492000D01*
X38788725Y13492000D01*
X38794612Y13462406D01*
X39099134Y13006656D01*
X39554884Y12702134D01*
X40092478Y12595200D01*
X40147522Y12595200D01*
X40685116Y12702134D01*
X41140866Y13006656D01*
X41445388Y13462406D01*
X41552322Y14000000D01*
X42947678Y14000000D01*
X43054612Y13462406D01*
X43359134Y13006656D01*
X43814884Y12702134D01*
X44352478Y12595200D01*
X44407522Y12595200D01*
X44945116Y12702134D01*
X44953706Y12707874D01*
X48072000Y9589580D01*
X48072000Y8700349D01*
X47834144Y8541419D01*
X47605492Y8199217D01*
X47525200Y7795563D01*
X47525200Y7244437D01*
X47605492Y6840783D01*
X47834144Y6498581D01*
X48072000Y6339651D01*
X48072000Y5660349D01*
X47834144Y5501419D01*
X47605492Y5159217D01*
X47525200Y4755563D01*
X47525200Y4204437D01*
X47605492Y3800783D01*
X47834144Y3458581D01*
X48176346Y3229929D01*
X48580000Y3149637D01*
X48983654Y3229929D01*
X49325856Y3458581D01*
X49554508Y3800783D01*
X49634800Y4204437D01*
X49634800Y4755563D01*
X49554508Y5159217D01*
X49325856Y5501419D01*
X49088000Y5660349D01*
X49088000Y6339651D01*
X49325856Y6498581D01*
X49554508Y6840783D01*
X49634800Y7244437D01*
X49634800Y7795563D01*
X49554508Y8199217D01*
X49325856Y8541419D01*
X49088000Y8700349D01*
X49088000Y9800000D01*
X49049331Y9994403D01*
X48939210Y10159210D01*
X45677601Y13420819D01*
X45705388Y13462406D01*
X45812322Y14000000D01*
X45705388Y14537594D01*
X45400866Y14993344D01*
X44945116Y15297866D01*
X44407522Y15404800D01*
X44352478Y15404800D01*
X43814884Y15297866D01*
X43359134Y14993344D01*
X43054612Y14537594D01*
X42947678Y14000000D01*
X41552322Y14000000D01*
X41445388Y14537594D01*
X41140866Y14993344D01*
X40685116Y15297866D01*
X40147522Y15404800D01*
X40092478Y15404800D01*
X39554884Y15297866D01*
X39099134Y14993344D01*
X38794612Y14537594D01*
X38788725Y14508000D01*
X38210420Y14508000D01*
X35508000Y17210420D01*
X35508000Y19014506D01*
X35625001Y19062850D01*
X35936057Y19373364D01*
X36090400Y19745064D01*
X36090400Y19466598D01*
X36109398Y19466598D01*
X36090400Y19447600D01*
X36090400Y19078743D01*
X36183206Y18854689D01*
X36354689Y18683206D01*
X36578743Y18590400D01*
X36947600Y18590400D01*
X37100000Y18742800D01*
X37100000Y19600000D01*
X37900000Y19600000D01*
X37900000Y18742800D01*
X38052400Y18590400D01*
X38421257Y18590400D01*
X38645311Y18683206D01*
X38816794Y18854689D01*
X38909600Y19078743D01*
X38909600Y19447600D01*
X38757200Y19600000D01*
X37900000Y19600000D01*
X37100000Y19600000D01*
X36946600Y19600000D01*
X36946600Y20400000D01*
X37100000Y20400000D01*
X37100000Y21257200D01*
X37900000Y21257200D01*
X37900000Y20400000D01*
X38757200Y20400000D01*
X38909600Y20552400D01*
X38909600Y20921257D01*
X38816794Y21145311D01*
X38645311Y21316794D01*
X38421257Y21409600D01*
X38052400Y21409600D01*
X37900000Y21257200D01*
X37100000Y21257200D01*
X36947600Y21409600D01*
X36578743Y21409600D01*
X36354689Y21316794D01*
X36183206Y21145311D01*
X36090400Y20921257D01*
X36090400Y20552400D01*
X36109398Y20533402D01*
X36090400Y20533402D01*
X36090400Y20254107D01*
X35937150Y20625001D01*
X35626636Y20936057D01*
X35220722Y21104607D01*
X34781206Y21104991D01*
X34374999Y20937150D01*
X34063943Y20626636D01*
X34014681Y20508000D01*
X33500000Y20508000D01*
X33337850Y20475746D01*
X33305596Y20469331D01*
X33140790Y20359210D01*
X29140790Y16359210D01*
X29030669Y16194403D01*
X28992000Y16000000D01*
X28992000Y9210421D01*
X28289580Y8508000D01*
X24485494Y8508000D01*
X24437150Y8625001D01*
X24126636Y8936057D01*
X23720722Y9104607D01*
X23281206Y9104991D01*
X22874999Y8937150D01*
X22563943Y8626636D01*
X22514681Y8508000D01*
X20000000Y8508000D01*
X19805597Y8469331D01*
X19640790Y8359210D01*
X18760790Y7479210D01*
X18650669Y7314403D01*
X18612000Y7120000D01*
X18612000Y6893247D01*
X18338788Y6710693D01*
X18099298Y6352270D01*
X18015200Y5929481D01*
X15144800Y5929481D01*
X15081386Y6248285D01*
X15233768Y6248285D01*
X15348259Y6033400D01*
X16180000Y6033400D01*
X16180000Y7091869D01*
X16980000Y7091869D01*
X16980000Y6033400D01*
X17811741Y6033400D01*
X17926232Y6248285D01*
X17690473Y6736954D01*
X17285655Y7098204D01*
X17186521Y7172440D01*
X16980000Y7091869D01*
X16180000Y7091869D01*
X15973479Y7172440D01*
X15874345Y7098204D01*
X15469527Y6736954D01*
X15233768Y6248285D01*
X15081386Y6248285D01*
X15060702Y6352270D01*
X14821212Y6710693D01*
X14462789Y6950183D01*
X14040000Y7034281D01*
X13617211Y6950183D01*
X13258788Y6710693D01*
X13019298Y6352270D01*
X12950818Y6008000D01*
X12610771Y6008000D01*
X12610771Y6700000D01*
X12589518Y6812952D01*
X12522763Y6916692D01*
X12420907Y6986287D01*
X12300000Y7010771D01*
X10700000Y7010771D01*
X10587048Y6989518D01*
X10483308Y6922763D01*
X10413713Y6820907D01*
X10389229Y6700000D01*
X379800Y6700000D01*
X379800Y10281206D01*
X5895009Y10281206D01*
X6062850Y9874999D01*
X6373364Y9563943D01*
X6779278Y9395393D01*
X7218794Y9395009D01*
X7625001Y9562850D01*
X7936057Y9873364D01*
X7985319Y9992000D01*
X27000000Y9992000D01*
X27194403Y10030669D01*
X27359210Y10140790D01*
X28359211Y11140790D01*
X28469331Y11305597D01*
X28508000Y11500000D01*
X28508000Y16789580D01*
X33710421Y21992000D01*
X45992000Y21992000D01*
X45992000Y21110771D01*
X45700000Y21110771D01*
X45587048Y21089518D01*
X45483308Y21022763D01*
X45413713Y20920907D01*
X45389229Y20800000D01*
X45389229Y19200000D01*
X45410482Y19087048D01*
X45477237Y18983308D01*
X45579093Y18913713D01*
X45700000Y18889229D01*
X45992000Y18889229D01*
X45992000Y17500000D01*
X46030669Y17305597D01*
X46140790Y17140790D01*
X49640789Y13640790D01*
X49717803Y13589331D01*
X49805597Y13530669D01*
X50000000Y13492000D01*
X50589229Y13492000D01*
X50589229Y12900000D01*
X50610482Y12787048D01*
X50677237Y12683308D01*
X50779093Y12613713D01*
X50900000Y12589229D01*
X53100000Y12589229D01*
X53212952Y12610482D01*
X53316692Y12677237D01*
X53386287Y12779093D01*
X53410771Y12900000D01*
X53410771Y15100000D01*
X53389518Y15212952D01*
X53322763Y15316692D01*
X53220907Y15386287D01*
X53100000Y15410771D01*
X50900000Y15410771D01*
X50787048Y15389518D01*
X50683308Y15322763D01*
X50613713Y15220907D01*
X50589229Y15100000D01*
X50589229Y14508000D01*
X50210421Y14508000D01*
X47008000Y17710420D01*
X47008000Y18853805D01*
X48419491Y18853805D01*
X48512209Y18648094D01*
X49066692Y18564332D01*
X49487791Y18648094D01*
X49580509Y18853805D01*
X49000000Y19434315D01*
X48419491Y18853805D01*
X47008000Y18853805D01*
X47008000Y18889229D01*
X47300000Y18889229D01*
X47412952Y18910482D01*
X47516692Y18977237D01*
X47586287Y19079093D01*
X47610771Y19200000D01*
X47610771Y19699844D01*
X47648094Y19512209D01*
X47853805Y19419491D01*
X48434315Y20000000D01*
X49565685Y20000000D01*
X50146195Y19419491D01*
X50351906Y19512209D01*
X50435668Y20066692D01*
X50351906Y20487791D01*
X50146195Y20580509D01*
X49565685Y20000000D01*
X48434315Y20000000D01*
X47853805Y20580509D01*
X47648094Y20487791D01*
X47610771Y20240722D01*
X47610771Y20800000D01*
X47589518Y20912952D01*
X47522763Y21016692D01*
X47420907Y21086287D01*
X47300000Y21110771D01*
X47008000Y21110771D01*
X47008000Y21146195D01*
X48419491Y21146195D01*
X49000000Y20565685D01*
X49580509Y21146195D01*
X49487791Y21351906D01*
X48933308Y21435668D01*
X48512209Y21351906D01*
X48419491Y21146195D01*
X47008000Y21146195D01*
X47008000Y24853805D01*
X48419491Y24853805D01*
X48512209Y24648094D01*
X49066692Y24564332D01*
X49487791Y24648094D01*
X49580509Y24853805D01*
X49000000Y25434315D01*
X48419491Y24853805D01*
X47008000Y24853805D01*
X47008000Y25014506D01*
X47125001Y25062850D01*
X47436057Y25373364D01*
X47598092Y25763587D01*
X47648094Y25512209D01*
X47853805Y25419491D01*
X48434315Y26000000D01*
X49565685Y26000000D01*
X50146195Y25419491D01*
X50351906Y25512209D01*
X50435668Y26066692D01*
X50351906Y26487791D01*
X50146195Y26580509D01*
X49565685Y26000000D01*
X48434315Y26000000D01*
X47853805Y26580509D01*
X47648094Y26487791D01*
X47604977Y26202365D01*
X47604991Y26218794D01*
X47437150Y26625001D01*
X47126636Y26936057D01*
X47008000Y26985319D01*
X47008000Y27146195D01*
X48419491Y27146195D01*
X49000000Y26565685D01*
X49580509Y27146195D01*
X49487791Y27351906D01*
X48933308Y27435668D01*
X48512209Y27351906D01*
X48419491Y27146195D01*
X47008000Y27146195D01*
X47008000Y28589229D01*
X48600000Y28589229D01*
X48712952Y28610482D01*
X48816692Y28677237D01*
X48886287Y28779093D01*
X48910771Y28900000D01*
X48910771Y29353805D01*
X53919491Y29353805D01*
X54012209Y29148094D01*
X54566692Y29064332D01*
X54987791Y29148094D01*
X55080509Y29353805D01*
X54500000Y29934315D01*
X53919491Y29353805D01*
X48910771Y29353805D01*
X48910771Y30433308D01*
X53064332Y30433308D01*
X53148094Y30012209D01*
X53353805Y29919491D01*
X53934315Y30500000D01*
X55065685Y30500000D01*
X55646195Y29919491D01*
X55851906Y30012209D01*
X55935668Y30566692D01*
X55851906Y30987791D01*
X55646195Y31080509D01*
X55065685Y30500000D01*
X53934315Y30500000D01*
X53353805Y31080509D01*
X53148094Y30987791D01*
X53064332Y30433308D01*
X48910771Y30433308D01*
X48910771Y31100000D01*
X48889518Y31212952D01*
X48822763Y31316692D01*
X48720907Y31386287D01*
X48600000Y31410771D01*
X46400000Y31410771D01*
X46287048Y31389518D01*
X46183308Y31322763D01*
X46113713Y31220907D01*
X46089229Y31100000D01*
X46089229Y30508000D01*
X42685327Y30508000D01*
X42455525Y30851922D01*
X42064660Y31113090D01*
X41603603Y31204800D01*
X41556397Y31204800D01*
X41095340Y31113090D01*
X40704475Y30851922D01*
X40443307Y30461057D01*
X40351597Y30000000D01*
X40443307Y29538943D01*
X40704475Y29148078D01*
X41095340Y28886910D01*
X41556397Y28795200D01*
X41603603Y28795200D01*
X42064660Y28886910D01*
X42455525Y29148078D01*
X42685327Y29492000D01*
X45992000Y29492000D01*
X45992000Y26985494D01*
X45874999Y26937150D01*
X45563943Y26626636D01*
X45395393Y26220722D01*
X45395009Y25781206D01*
X45562850Y25374999D01*
X45873364Y25063943D01*
X45992000Y25014681D01*
X45992000Y23008000D01*
X33500000Y23008000D01*
X33305597Y22969331D01*
X33140790Y22859211D01*
X27640790Y17359210D01*
X27530669Y17194403D01*
X27492000Y17000000D01*
X27492000Y11710421D01*
X26789580Y11008000D01*
X12008000Y11008000D01*
X12008000Y11726753D01*
X12281212Y11909307D01*
X12520702Y12267730D01*
X12604800Y12690519D01*
X12604800Y13549481D01*
X12520702Y13972270D01*
X12281212Y14330693D01*
X11922789Y14570183D01*
X11500000Y14654281D01*
X11077211Y14570183D01*
X10718788Y14330693D01*
X10479298Y13972270D01*
X10395200Y13549481D01*
X10395200Y12690519D01*
X10479298Y12267730D01*
X10718788Y11909307D01*
X10992000Y11726753D01*
X10992000Y11008000D01*
X7985494Y11008000D01*
X7937150Y11125001D01*
X7626636Y11436057D01*
X7236413Y11598092D01*
X7487791Y11648094D01*
X7580509Y11853805D01*
X7000000Y12434315D01*
X6419491Y11853805D01*
X6512209Y11648094D01*
X6797635Y11604977D01*
X6781206Y11604991D01*
X6374999Y11437150D01*
X6063943Y11126636D01*
X5895393Y10720722D01*
X5895009Y10281206D01*
X379800Y10281206D01*
X379800Y12933308D01*
X5564332Y12933308D01*
X5648094Y12512209D01*
X5853805Y12419491D01*
X6434315Y13000000D01*
X7565685Y13000000D01*
X8146195Y12419491D01*
X8351906Y12512209D01*
X8435668Y13066692D01*
X8351906Y13487791D01*
X8146195Y13580509D01*
X7565685Y13000000D01*
X6434315Y13000000D01*
X5853805Y13580509D01*
X5648094Y13487791D01*
X5564332Y12933308D01*
X379800Y12933308D01*
X379800Y14146195D01*
X6419491Y14146195D01*
X7000000Y13565685D01*
X7580509Y14146195D01*
X7487791Y14351906D01*
X6933308Y14435668D01*
X6512209Y14351906D01*
X6419491Y14146195D01*
X379800Y14146195D01*
X379800Y24642578D01*
X2194888Y24642578D01*
X2469073Y23978999D01*
X2976328Y23470857D01*
X3639428Y23195514D01*
X4357422Y23194888D01*
X5021001Y23469073D01*
X5529143Y23976328D01*
X5804486Y24639428D01*
X5805112Y25357422D01*
X5530927Y26021001D01*
X5023672Y26529143D01*
X4368944Y26801010D01*
X8995026Y26801010D01*
X9147675Y26431570D01*
X9430083Y26148669D01*
X9492000Y26122959D01*
X9492000Y24000000D01*
X9530669Y23805597D01*
X9640790Y23640790D01*
X12640790Y20640790D01*
X12805597Y20530669D01*
X13000000Y20492000D01*
X13014506Y20492000D01*
X13062850Y20374999D01*
X13373364Y20063943D01*
X13492000Y20014681D01*
X13492000Y17508000D01*
X12245493Y17508000D01*
X12110186Y17710501D01*
X11784205Y17928314D01*
X11399685Y18004800D01*
X11360315Y18004800D01*
X10975795Y17928314D01*
X10649814Y17710501D01*
X10432001Y17384520D01*
X10355515Y17000000D01*
X10432001Y16615480D01*
X10649814Y16289499D01*
X10975795Y16071686D01*
X11360315Y15995200D01*
X11399685Y15995200D01*
X11784205Y16071686D01*
X12110186Y16289499D01*
X12245493Y16492000D01*
X13492000Y16492000D01*
X13492000Y14486520D01*
X13258788Y14330693D01*
X13019298Y13972270D01*
X12935200Y13549481D01*
X12935200Y12690519D01*
X13019298Y12267730D01*
X13258788Y11909307D01*
X13617211Y11669817D01*
X14040000Y11585719D01*
X14462789Y11669817D01*
X14821212Y11909307D01*
X15060702Y12267730D01*
X15144800Y12690519D01*
X15144800Y13549481D01*
X15060702Y13972270D01*
X14821212Y14330693D01*
X14508000Y14539974D01*
X14508000Y20014506D01*
X14625001Y20062850D01*
X14936057Y20373364D01*
X15104607Y20779278D01*
X15104608Y20781206D01*
X15395009Y20781206D01*
X15562850Y20374999D01*
X15873364Y20063943D01*
X15992000Y20014681D01*
X15992000Y14459793D01*
X15798788Y14330693D01*
X15559298Y13972270D01*
X15475200Y13549481D01*
X15475200Y12690519D01*
X15559298Y12267730D01*
X15798788Y11909307D01*
X16157211Y11669817D01*
X16580000Y11585719D01*
X17002789Y11669817D01*
X17361212Y11909307D01*
X17600702Y12267730D01*
X17621385Y12371715D01*
X17773768Y12371715D01*
X18009527Y11883046D01*
X18414345Y11521796D01*
X18513479Y11447560D01*
X18720000Y11528131D01*
X18720000Y12586600D01*
X19520000Y12586600D01*
X19520000Y11528131D01*
X19726521Y11447560D01*
X19825655Y11521796D01*
X20230473Y11883046D01*
X20466232Y12371715D01*
X20351741Y12586600D01*
X19520000Y12586600D01*
X18720000Y12586600D01*
X17888259Y12586600D01*
X17773768Y12371715D01*
X17621385Y12371715D01*
X17684800Y12690519D01*
X17684800Y13549481D01*
X17621386Y13868285D01*
X17773768Y13868285D01*
X17888259Y13653400D01*
X18720000Y13653400D01*
X18720000Y14711869D01*
X19520000Y14711869D01*
X19520000Y13653400D01*
X20351741Y13653400D01*
X20466232Y13868285D01*
X20230473Y14356954D01*
X19825655Y14718204D01*
X19726521Y14792440D01*
X19520000Y14711869D01*
X18720000Y14711869D01*
X18513479Y14792440D01*
X18414345Y14718204D01*
X18009527Y14356954D01*
X17773768Y13868285D01*
X17621386Y13868285D01*
X17600702Y13972270D01*
X17361212Y14330693D01*
X17008000Y14566701D01*
X17008000Y16492000D01*
X18122706Y16492000D01*
X18147675Y16431570D01*
X18430083Y16148669D01*
X18799256Y15995375D01*
X19198990Y15995026D01*
X19568430Y16147675D01*
X19851331Y16430083D01*
X20004625Y16799256D01*
X20004974Y17198990D01*
X19852325Y17568430D01*
X19569917Y17851331D01*
X19200744Y18004625D01*
X18801010Y18004974D01*
X18431570Y17852325D01*
X18148669Y17569917D01*
X18122959Y17508000D01*
X17008000Y17508000D01*
X17008000Y20014506D01*
X17125001Y20062850D01*
X17436057Y20373364D01*
X17485319Y20492000D01*
X19500000Y20492000D01*
X19694403Y20530669D01*
X19859210Y20640790D01*
X22479211Y23260790D01*
X22589331Y23425597D01*
X22628000Y23620000D01*
X22628000Y25141039D01*
X22850186Y25289499D01*
X23067999Y25615480D01*
X23144485Y26000000D01*
X23067999Y26384520D01*
X22850186Y26710501D01*
X22524205Y26928314D01*
X22139685Y27004800D01*
X22100315Y27004800D01*
X21715795Y26928314D01*
X21389814Y26710501D01*
X21172001Y26384520D01*
X21095515Y26000000D01*
X21172001Y25615480D01*
X21389814Y25289499D01*
X21612000Y25141039D01*
X21612000Y23830421D01*
X19289580Y21508000D01*
X17485494Y21508000D01*
X17437150Y21625001D01*
X17126636Y21936057D01*
X16720722Y22104607D01*
X16281206Y22104991D01*
X15874999Y21937150D01*
X15563943Y21626636D01*
X15395393Y21220722D01*
X15395009Y20781206D01*
X15104608Y20781206D01*
X15104991Y21218794D01*
X14937150Y21625001D01*
X14626636Y21936057D01*
X14220722Y22104607D01*
X13781206Y22104991D01*
X13374999Y21937150D01*
X13077876Y21640544D01*
X10508000Y24210420D01*
X10508000Y25801010D01*
X13495026Y25801010D01*
X13647675Y25431570D01*
X13930083Y25148669D01*
X14299256Y24995375D01*
X14698990Y24995026D01*
X15068430Y25147675D01*
X15351331Y25430083D01*
X15504625Y25799256D01*
X15504974Y26198990D01*
X15352325Y26568430D01*
X15069917Y26851331D01*
X15008000Y26877041D01*
X15008000Y28289580D01*
X16710420Y29992000D01*
X18014506Y29992000D01*
X18062850Y29874999D01*
X18373364Y29563943D01*
X18779278Y29395393D01*
X19218794Y29395009D01*
X19625001Y29562850D01*
X19936057Y29873364D01*
X19985319Y29992000D01*
X23669580Y29992000D01*
X24539448Y29122132D01*
X24495200Y28899685D01*
X24495200Y28860315D01*
X24571686Y28475795D01*
X24789499Y28149814D01*
X25115480Y27932001D01*
X25500000Y27855515D01*
X25884520Y27932001D01*
X26210501Y28149814D01*
X26428314Y28475795D01*
X26504800Y28860315D01*
X26504800Y28899685D01*
X26428314Y29284205D01*
X26210501Y29610186D01*
X25884520Y29827999D01*
X25524132Y29899685D01*
X29495200Y29899685D01*
X29495200Y29860315D01*
X29571686Y29475795D01*
X29789499Y29149814D01*
X30115480Y28932001D01*
X30500000Y28855515D01*
X30884520Y28932001D01*
X30992000Y29003817D01*
X30992000Y26877294D01*
X30931570Y26852325D01*
X30648669Y26569917D01*
X30495375Y26200744D01*
X30495026Y25801010D01*
X30647675Y25431570D01*
X30930083Y25148669D01*
X31299256Y24995375D01*
X31698990Y24995026D01*
X32068430Y25147675D01*
X32351331Y25430083D01*
X32504625Y25799256D01*
X32504974Y26198990D01*
X32352325Y26568430D01*
X32069917Y26851331D01*
X32008000Y26877041D01*
X32008000Y29372000D01*
X35289229Y29372000D01*
X35289229Y29100000D01*
X35310482Y28987048D01*
X35377237Y28883308D01*
X35479093Y28813713D01*
X35600000Y28789229D01*
X37400000Y28789229D01*
X37512952Y28810482D01*
X37616692Y28877237D01*
X37686287Y28979093D01*
X37710771Y29100000D01*
X37710771Y30000000D01*
X37811597Y30000000D01*
X37903307Y29538943D01*
X38164475Y29148078D01*
X38555340Y28886910D01*
X38612000Y28875640D01*
X38612000Y26858961D01*
X38389814Y26710501D01*
X38172001Y26384520D01*
X38095515Y26000000D01*
X38172001Y25615480D01*
X38389814Y25289499D01*
X38715795Y25071686D01*
X39100315Y24995200D01*
X39139685Y24995200D01*
X39524205Y25071686D01*
X39850186Y25289499D01*
X40067999Y25615480D01*
X40144485Y26000000D01*
X40067999Y26384520D01*
X39850186Y26710501D01*
X39628000Y26858961D01*
X39628000Y28955960D01*
X39915525Y29148078D01*
X40176693Y29538943D01*
X40268403Y30000000D01*
X40176693Y30461057D01*
X39915525Y30851922D01*
X39548000Y31097495D01*
X39548000Y36329580D01*
X40330420Y37112000D01*
X46190773Y37112000D01*
X46202134Y37054884D01*
X46506656Y36599134D01*
X46962406Y36294612D01*
X47500000Y36187678D01*
X48037594Y36294612D01*
X48079181Y36322399D01*
X51760790Y32640790D01*
X51925597Y32530669D01*
X52120000Y32492000D01*
X53389229Y32492000D01*
X53389229Y32200000D01*
X53410482Y32087048D01*
X53477237Y31983308D01*
X53579093Y31913713D01*
X53700000Y31889229D01*
X54199844Y31889229D01*
X54012209Y31851906D01*
X53919491Y31646195D01*
X54500000Y31065685D01*
X55080509Y31646195D01*
X54987791Y31851906D01*
X54740722Y31889229D01*
X55300000Y31889229D01*
X55412952Y31910482D01*
X55516692Y31977237D01*
X55586287Y32079093D01*
X55610771Y32200000D01*
X55610771Y33392351D01*
X55899210Y33680790D01*
X56009331Y33845596D01*
X56048000Y34040000D01*
X56048000Y37954631D01*
X56356567Y38160809D01*
X56606896Y38535453D01*
X56694800Y38977376D01*
X56694800Y39022624D01*
X56606896Y39464547D01*
X56356567Y39839191D01*
X55981923Y40089520D01*
X55540000Y40177424D01*
X55098077Y40089520D01*
X54723433Y39839191D01*
X54473104Y39464547D01*
X54459600Y39396658D01*
X54459600Y39533402D01*
X54415602Y39533402D01*
X54459600Y39577400D01*
X54459600Y39971257D01*
X54366794Y40195311D01*
X54195311Y40366794D01*
X53971257Y40459600D01*
X53577400Y40459600D01*
X53425000Y40307200D01*
X53425000Y39425000D01*
X53553400Y39425000D01*
X53553400Y38575000D01*
X53425000Y38575000D01*
X53425000Y37692800D01*
X53577400Y37540400D01*
X53971257Y37540400D01*
X54195311Y37633206D01*
X54366794Y37804689D01*
X54459600Y38028743D01*
X54459600Y38422600D01*
X54415602Y38466598D01*
X54459600Y38466598D01*
X54459600Y38603342D01*
X54473104Y38535453D01*
X54723433Y38160809D01*
X55032000Y37954631D01*
X55032000Y34250420D01*
X54892351Y34110771D01*
X53700000Y34110771D01*
X53587048Y34089518D01*
X53483308Y34022763D01*
X53413713Y33920907D01*
X53389229Y33800000D01*
X53389229Y33508000D01*
X52330420Y33508000D01*
X48792126Y37046294D01*
X48797866Y37054884D01*
X48904800Y37592478D01*
X48904800Y37647522D01*
X48797866Y38185116D01*
X48639185Y38422600D01*
X51540400Y38422600D01*
X51540400Y38028743D01*
X51633206Y37804689D01*
X51804689Y37633206D01*
X52028743Y37540400D01*
X52422600Y37540400D01*
X52575000Y37692800D01*
X52575000Y38575000D01*
X51692800Y38575000D01*
X51540400Y38422600D01*
X48639185Y38422600D01*
X48493344Y38640866D01*
X48037594Y38945388D01*
X47500000Y39052322D01*
X46962406Y38945388D01*
X46506656Y38640866D01*
X46202134Y38185116D01*
X46190773Y38128000D01*
X40120000Y38128000D01*
X39925597Y38089331D01*
X39760790Y37979210D01*
X38680790Y36899210D01*
X38570669Y36734403D01*
X38532000Y36540000D01*
X38532000Y31097495D01*
X38164475Y30851922D01*
X37903307Y30461057D01*
X37811597Y30000000D01*
X37710771Y30000000D01*
X37710771Y30900000D01*
X37689518Y31012952D01*
X37622763Y31116692D01*
X37520907Y31186287D01*
X37400000Y31210771D01*
X35600000Y31210771D01*
X35487048Y31189518D01*
X35383308Y31122763D01*
X35313713Y31020907D01*
X35289229Y30900000D01*
X35289229Y30388000D01*
X31358961Y30388000D01*
X31210501Y30610186D01*
X30884520Y30827999D01*
X30500000Y30904485D01*
X30115480Y30827999D01*
X29789499Y30610186D01*
X29571686Y30284205D01*
X29495200Y29899685D01*
X25524132Y29899685D01*
X25500000Y29904485D01*
X25244715Y29853705D01*
X24239210Y30859210D01*
X24074403Y30969331D01*
X23880000Y31008000D01*
X19985494Y31008000D01*
X19937150Y31125001D01*
X19626636Y31436057D01*
X19220722Y31604607D01*
X18781206Y31604991D01*
X18374999Y31437150D01*
X18063943Y31126636D01*
X18014681Y31008000D01*
X16500000Y31008000D01*
X16305596Y30969331D01*
X16140790Y30859210D01*
X14140790Y28859210D01*
X14030669Y28694403D01*
X13992000Y28500000D01*
X13992000Y26877294D01*
X13931570Y26852325D01*
X13648669Y26569917D01*
X13495375Y26200744D01*
X13495026Y25801010D01*
X10508000Y25801010D01*
X10508000Y26122706D01*
X10568430Y26147675D01*
X10851331Y26430083D01*
X11004625Y26799256D01*
X11004974Y27198990D01*
X10852325Y27568430D01*
X10569917Y27851331D01*
X10200744Y28004625D01*
X9801010Y28004974D01*
X9431570Y27852325D01*
X9148669Y27569917D01*
X8995375Y27200744D01*
X8995026Y26801010D01*
X4368944Y26801010D01*
X4360572Y26804486D01*
X3642578Y26805112D01*
X2978999Y26530927D01*
X2470857Y26023672D01*
X2195514Y25360572D01*
X2194888Y24642578D01*
X379800Y24642578D01*
X379800Y39850000D01*
X6339229Y39850000D01*
X6339229Y38150000D01*
X6360482Y38037048D01*
X6427237Y37933308D01*
X6529093Y37863713D01*
X6650000Y37839229D01*
X6992000Y37839229D01*
X6992000Y35500000D01*
X7030669Y35305597D01*
X7140790Y35140790D01*
X8020790Y34260790D01*
X8185597Y34150669D01*
X8380000Y34112000D01*
X9141039Y34112000D01*
X9289499Y33889814D01*
X9615480Y33672001D01*
X10000000Y33595515D01*
X10384520Y33672001D01*
X10710501Y33889814D01*
X10928314Y34215795D01*
X11004800Y34600315D01*
X11004800Y34639685D01*
X10928314Y35024205D01*
X10710501Y35350186D01*
X10384520Y35567999D01*
X10000000Y35644485D01*
X9615480Y35567999D01*
X9289499Y35350186D01*
X9141039Y35128000D01*
X8590420Y35128000D01*
X8008000Y35710420D01*
X8008000Y37839229D01*
X8350000Y37839229D01*
X8462952Y37860482D01*
X8566692Y37927237D01*
X8636287Y38029093D01*
X8660771Y38150000D01*
X8660771Y38466598D01*
X8761070Y38466598D01*
X8727288Y38361789D01*
X9071445Y37908017D01*
X9401794Y37687321D01*
X9615000Y37763818D01*
X9615000Y38575000D01*
X10465000Y38575000D01*
X10465000Y37763818D01*
X10678206Y37687321D01*
X11008555Y37908017D01*
X11352712Y38361789D01*
X11283989Y38575000D01*
X10465000Y38575000D01*
X9615000Y38575000D01*
X9486600Y38575000D01*
X9486600Y39425000D01*
X9615000Y39425000D01*
X9615000Y40236182D01*
X10465000Y40236182D01*
X10465000Y39425000D01*
X11283989Y39425000D01*
X11352712Y39638211D01*
X11192084Y39850000D01*
X16839229Y39850000D01*
X16839229Y38150000D01*
X16860482Y38037048D01*
X16927237Y37933308D01*
X17029093Y37863713D01*
X17150000Y37839229D01*
X17492000Y37839229D01*
X17492000Y34000000D01*
X17530669Y33805597D01*
X17640790Y33640790D01*
X17889229Y33392351D01*
X17889229Y32200000D01*
X17910482Y32087048D01*
X17977237Y31983308D01*
X18079093Y31913713D01*
X18200000Y31889229D01*
X19800000Y31889229D01*
X19912952Y31910482D01*
X20016692Y31977237D01*
X20086287Y32079093D01*
X20110771Y32200000D01*
X20110771Y33800000D01*
X20089518Y33912952D01*
X20022763Y34016692D01*
X19920907Y34086287D01*
X19800000Y34110771D01*
X18607649Y34110771D01*
X18508000Y34210420D01*
X18508000Y35453560D01*
X24948534Y35453560D01*
X25025754Y35251800D01*
X25539519Y35165328D01*
X25974246Y35251800D01*
X26051466Y35453560D01*
X25500000Y36005025D01*
X24948534Y35453560D01*
X18508000Y35453560D01*
X18508000Y36460481D01*
X24165328Y36460481D01*
X24251800Y36025754D01*
X24453560Y35948534D01*
X25005025Y36500000D01*
X25994975Y36500000D01*
X26546440Y35948534D01*
X26748200Y36025754D01*
X26834672Y36539519D01*
X26748200Y36974246D01*
X26546440Y37051466D01*
X25994975Y36500000D01*
X25005025Y36500000D01*
X24453560Y37051466D01*
X24251800Y36974246D01*
X24165328Y36460481D01*
X18508000Y36460481D01*
X18508000Y37546440D01*
X24948534Y37546440D01*
X25500000Y36994975D01*
X25806035Y37301010D01*
X29495026Y37301010D01*
X29647675Y36931570D01*
X29930083Y36648669D01*
X30299256Y36495375D01*
X30698990Y36495026D01*
X31068430Y36647675D01*
X31351331Y36930083D01*
X31504625Y37299256D01*
X31504974Y37698990D01*
X31352325Y38068430D01*
X31069917Y38351331D01*
X31008000Y38377041D01*
X31008000Y39014507D01*
X31210501Y39149814D01*
X31428314Y39475795D01*
X31504800Y39860315D01*
X31504800Y39899685D01*
X31490564Y39971257D01*
X51540400Y39971257D01*
X51540400Y39577400D01*
X51692800Y39425000D01*
X52575000Y39425000D01*
X52575000Y40307200D01*
X52422600Y40459600D01*
X52028743Y40459600D01*
X51804689Y40366794D01*
X51633206Y40195311D01*
X51540400Y39971257D01*
X31490564Y39971257D01*
X31428314Y40284205D01*
X31210501Y40610186D01*
X30884520Y40827999D01*
X30500000Y40904485D01*
X30115480Y40827999D01*
X29789499Y40610186D01*
X29571686Y40284205D01*
X29495200Y39899685D01*
X29495200Y39860315D01*
X29571686Y39475795D01*
X29789499Y39149814D01*
X29992000Y39014507D01*
X29992000Y38377294D01*
X29931570Y38352325D01*
X29648669Y38069917D01*
X29495375Y37700744D01*
X29495026Y37301010D01*
X25806035Y37301010D01*
X26051466Y37546440D01*
X25974246Y37748200D01*
X25460481Y37834672D01*
X25025754Y37748200D01*
X24948534Y37546440D01*
X18508000Y37546440D01*
X18508000Y37839229D01*
X18850000Y37839229D01*
X18962952Y37860482D01*
X19066692Y37927237D01*
X19136287Y38029093D01*
X19160771Y38150000D01*
X19160771Y38466598D01*
X19261070Y38466598D01*
X19227288Y38361789D01*
X19571445Y37908017D01*
X19901794Y37687321D01*
X20115000Y37763818D01*
X20115000Y38575000D01*
X20965000Y38575000D01*
X20965000Y37763818D01*
X21178206Y37687321D01*
X21508555Y37908017D01*
X21852712Y38361789D01*
X21783989Y38575000D01*
X20965000Y38575000D01*
X20115000Y38575000D01*
X19986600Y38575000D01*
X19986600Y39425000D01*
X20115000Y39425000D01*
X20115000Y40236182D01*
X20965000Y40236182D01*
X20965000Y39425000D01*
X21783989Y39425000D01*
X21852712Y39638211D01*
X21508555Y40091983D01*
X21178206Y40312679D01*
X20965000Y40236182D01*
X20115000Y40236182D01*
X19901794Y40312679D01*
X19571445Y40091983D01*
X19227288Y39638211D01*
X19261070Y39533402D01*
X19160771Y39533402D01*
X19160771Y39850000D01*
X19139518Y39962952D01*
X19072763Y40066692D01*
X18970907Y40136287D01*
X18850000Y40160771D01*
X17150000Y40160771D01*
X17037048Y40139518D01*
X16933308Y40072763D01*
X16863713Y39970907D01*
X16839229Y39850000D01*
X11192084Y39850000D01*
X11008555Y40091983D01*
X10678206Y40312679D01*
X10465000Y40236182D01*
X9615000Y40236182D01*
X9401794Y40312679D01*
X9071445Y40091983D01*
X8727288Y39638211D01*
X8761070Y39533402D01*
X8660771Y39533402D01*
X8660771Y39850000D01*
X8639518Y39962952D01*
X8572763Y40066692D01*
X8470907Y40136287D01*
X8350000Y40160771D01*
X6650000Y40160771D01*
X6537048Y40139518D01*
X6433308Y40072763D01*
X6363713Y39970907D01*
X6339229Y39850000D01*
X379800Y39850000D01*
X379800Y46453560D01*
X29948534Y46453560D01*
X30025754Y46251800D01*
X30539519Y46165328D01*
X30974246Y46251800D01*
X31051466Y46453560D01*
X30845026Y46660000D01*
X36944944Y46660000D01*
X37101356Y45873662D01*
X37546781Y45207037D01*
X38213406Y44761612D01*
X38999744Y44605200D01*
X39080256Y44605200D01*
X39866594Y44761612D01*
X40533219Y45207037D01*
X40978644Y45873662D01*
X41135056Y46660000D01*
X40978644Y47446338D01*
X40533219Y48112963D01*
X39866594Y48558388D01*
X39080256Y48714800D01*
X38999744Y48714800D01*
X38213406Y48558388D01*
X37546781Y48112963D01*
X37101356Y47446338D01*
X36944944Y46660000D01*
X30845026Y46660000D01*
X30500000Y47005025D01*
X29948534Y46453560D01*
X379800Y46453560D01*
X379800Y47460481D01*
X29165328Y47460481D01*
X29251800Y47025754D01*
X29453560Y46948534D01*
X30005025Y47500000D01*
X30994975Y47500000D01*
X31546440Y46948534D01*
X31748200Y47025754D01*
X31834672Y47539519D01*
X31748200Y47974246D01*
X31546440Y48051466D01*
X30994975Y47500000D01*
X30005025Y47500000D01*
X29453560Y48051466D01*
X29251800Y47974246D01*
X29165328Y47460481D01*
X379800Y47460481D01*
X379800Y48546440D01*
X29948534Y48546440D01*
X30500000Y47994975D01*
X31051466Y48546440D01*
X30974246Y48748200D01*
X30460481Y48834672D01*
X30025754Y48748200D01*
X29948534Y48546440D01*
X379800Y48546440D01*
X379800Y49620200D01*
X59620200Y49620200D01*
X59620200Y379800D01*
X59620200Y379800D01*
G37*
X59620200Y379800D02*
X379800Y379800D01*
X379800Y6700000D01*
X10389229Y6700000D01*
X10389229Y4300000D01*
X10410482Y4187048D01*
X10477237Y4083308D01*
X10579093Y4013713D01*
X10700000Y3989229D01*
X12300000Y3989229D01*
X12412952Y4010482D01*
X12516692Y4077237D01*
X12586287Y4179093D01*
X12610771Y4300000D01*
X12610771Y4992000D01*
X12950818Y4992000D01*
X13019298Y4647730D01*
X13258788Y4289307D01*
X13617211Y4049817D01*
X14040000Y3965719D01*
X14462789Y4049817D01*
X14821212Y4289307D01*
X15060702Y4647730D01*
X15081385Y4751715D01*
X15233768Y4751715D01*
X15469527Y4263046D01*
X15874345Y3901796D01*
X15973479Y3827560D01*
X16180000Y3908131D01*
X16180000Y4966600D01*
X16980000Y4966600D01*
X16980000Y3908131D01*
X17186521Y3827560D01*
X17285655Y3901796D01*
X17690473Y4263046D01*
X17926232Y4751715D01*
X17811741Y4966600D01*
X16980000Y4966600D01*
X16180000Y4966600D01*
X15348259Y4966600D01*
X15233768Y4751715D01*
X15081385Y4751715D01*
X15144800Y5070519D01*
X15144800Y5929481D01*
X18015200Y5929481D01*
X18015200Y5070519D01*
X18099298Y4647730D01*
X18338788Y4289307D01*
X18697211Y4049817D01*
X19120000Y3965719D01*
X19542789Y4049817D01*
X19901212Y4289307D01*
X19944308Y4353805D01*
X22919491Y4353805D01*
X23012209Y4148094D01*
X23566692Y4064332D01*
X23987791Y4148094D01*
X24080509Y4353805D01*
X23500000Y4934315D01*
X22919491Y4353805D01*
X19944308Y4353805D01*
X20140702Y4647730D01*
X20224800Y5070519D01*
X20224800Y5433308D01*
X22064332Y5433308D01*
X22148094Y5012209D01*
X22353805Y4919491D01*
X22934315Y5500000D01*
X24065685Y5500000D01*
X24646195Y4919491D01*
X24851906Y5012209D01*
X24935668Y5566692D01*
X24851906Y5987791D01*
X24646195Y6080509D01*
X24065685Y5500000D01*
X22934315Y5500000D01*
X22353805Y6080509D01*
X22148094Y5987791D01*
X22064332Y5433308D01*
X20224800Y5433308D01*
X20224800Y5929481D01*
X20140702Y6352270D01*
X19901212Y6710693D01*
X19628000Y6893247D01*
X19628000Y6909580D01*
X20210420Y7492000D01*
X22514506Y7492000D01*
X22562850Y7374999D01*
X22873364Y7063943D01*
X23263587Y6901908D01*
X23012209Y6851906D01*
X22919491Y6646195D01*
X23500000Y6065685D01*
X24080509Y6646195D01*
X23987791Y6851906D01*
X23702365Y6895023D01*
X23718794Y6895009D01*
X24125001Y7062850D01*
X24436057Y7373364D01*
X24485319Y7492000D01*
X28500000Y7492000D01*
X28694403Y7530669D01*
X28859210Y7640790D01*
X29859211Y8640790D01*
X29969331Y8805597D01*
X30008000Y9000000D01*
X30008000Y15100000D01*
X31089229Y15100000D01*
X31089229Y12900000D01*
X31110482Y12787048D01*
X31177237Y12683308D01*
X31279093Y12613713D01*
X31400000Y12589229D01*
X31992000Y12589229D01*
X31992000Y12000000D01*
X32030669Y11805597D01*
X32140790Y11640790D01*
X36870790Y6910790D01*
X37035596Y6800669D01*
X37230000Y6762000D01*
X37498133Y6762000D01*
X37674144Y6498581D01*
X37912000Y6339651D01*
X37912000Y5790771D01*
X37670000Y5790771D01*
X37557048Y5769518D01*
X37453308Y5702763D01*
X37383713Y5600907D01*
X37359229Y5480000D01*
X37359229Y3480000D01*
X37380482Y3367048D01*
X37447237Y3263308D01*
X37549093Y3193713D01*
X37670000Y3169229D01*
X39170000Y3169229D01*
X39282952Y3190482D01*
X39386692Y3257237D01*
X39456287Y3359093D01*
X39480771Y3480000D01*
X39480771Y3777703D01*
X39702425Y3777703D01*
X39971239Y3330879D01*
X40385179Y2997891D01*
X40585000Y3082522D01*
X40585000Y3980000D01*
X41335000Y3980000D01*
X41335000Y3082522D01*
X41534821Y2997891D01*
X41948761Y3330879D01*
X42217575Y3777703D01*
X42242425Y3777703D01*
X42511239Y3330879D01*
X42925179Y2997891D01*
X43125000Y3082522D01*
X43125000Y3980000D01*
X43875000Y3980000D01*
X43875000Y3082522D01*
X44074821Y2997891D01*
X44488761Y3330879D01*
X44757575Y3777703D01*
X44782425Y3777703D01*
X45051239Y3330879D01*
X45465179Y2997891D01*
X45665000Y3082522D01*
X45665000Y3980000D01*
X46415000Y3980000D01*
X46415000Y3082522D01*
X46614821Y2997891D01*
X47028761Y3330879D01*
X47297575Y3777703D01*
X47200447Y3980000D01*
X46415000Y3980000D01*
X45665000Y3980000D01*
X44879553Y3980000D01*
X44782425Y3777703D01*
X44757575Y3777703D01*
X44660447Y3980000D01*
X43875000Y3980000D01*
X43125000Y3980000D01*
X42339553Y3980000D01*
X42242425Y3777703D01*
X42217575Y3777703D01*
X42120447Y3980000D01*
X41335000Y3980000D01*
X40585000Y3980000D01*
X39799553Y3980000D01*
X39702425Y3777703D01*
X39480771Y3777703D01*
X39480771Y5182297D01*
X39702425Y5182297D01*
X39799553Y4980000D01*
X40585000Y4980000D01*
X40585000Y5877478D01*
X41335000Y5877478D01*
X41335000Y4980000D01*
X42120447Y4980000D01*
X42217575Y5182297D01*
X42242425Y5182297D01*
X42339553Y4980000D01*
X43125000Y4980000D01*
X43125000Y5877478D01*
X43875000Y5877478D01*
X43875000Y4980000D01*
X44660447Y4980000D01*
X44757575Y5182297D01*
X44782425Y5182297D01*
X44879553Y4980000D01*
X45665000Y4980000D01*
X45665000Y5877478D01*
X46415000Y5877478D01*
X46415000Y4980000D01*
X47200447Y4980000D01*
X47297575Y5182297D01*
X47028761Y5629121D01*
X46614821Y5962109D01*
X46415000Y5877478D01*
X45665000Y5877478D01*
X45465179Y5962109D01*
X45051239Y5629121D01*
X44782425Y5182297D01*
X44757575Y5182297D01*
X44488761Y5629121D01*
X44074821Y5962109D01*
X43875000Y5877478D01*
X43125000Y5877478D01*
X42925179Y5962109D01*
X42511239Y5629121D01*
X42242425Y5182297D01*
X42217575Y5182297D01*
X41948761Y5629121D01*
X41534821Y5962109D01*
X41335000Y5877478D01*
X40585000Y5877478D01*
X40385179Y5962109D01*
X39971239Y5629121D01*
X39702425Y5182297D01*
X39480771Y5182297D01*
X39480771Y5480000D01*
X39459518Y5592952D01*
X39392763Y5696692D01*
X39290907Y5766287D01*
X39170000Y5790771D01*
X38928000Y5790771D01*
X38928000Y6339651D01*
X39165856Y6498581D01*
X39379086Y6817703D01*
X39702425Y6817703D01*
X39971239Y6370879D01*
X40385179Y6037891D01*
X40585000Y6122522D01*
X40585000Y7020000D01*
X41335000Y7020000D01*
X41335000Y6122522D01*
X41534821Y6037891D01*
X41948761Y6370879D01*
X42217575Y6817703D01*
X42242425Y6817703D01*
X42511239Y6370879D01*
X42925179Y6037891D01*
X43125000Y6122522D01*
X43125000Y7020000D01*
X43875000Y7020000D01*
X43875000Y6122522D01*
X44074821Y6037891D01*
X44488761Y6370879D01*
X44757575Y6817703D01*
X44782425Y6817703D01*
X45051239Y6370879D01*
X45465179Y6037891D01*
X45665000Y6122522D01*
X45665000Y7020000D01*
X46415000Y7020000D01*
X46415000Y6122522D01*
X46614821Y6037891D01*
X47028761Y6370879D01*
X47297575Y6817703D01*
X47200447Y7020000D01*
X46415000Y7020000D01*
X45665000Y7020000D01*
X44879553Y7020000D01*
X44782425Y6817703D01*
X44757575Y6817703D01*
X44660447Y7020000D01*
X43875000Y7020000D01*
X43125000Y7020000D01*
X42339553Y7020000D01*
X42242425Y6817703D01*
X42217575Y6817703D01*
X42120447Y7020000D01*
X41335000Y7020000D01*
X40585000Y7020000D01*
X39799553Y7020000D01*
X39702425Y6817703D01*
X39379086Y6817703D01*
X39394508Y6840783D01*
X39474800Y7244437D01*
X39474800Y7795563D01*
X39394508Y8199217D01*
X39379087Y8222297D01*
X39702425Y8222297D01*
X39799553Y8020000D01*
X40585000Y8020000D01*
X40585000Y8917478D01*
X41335000Y8917478D01*
X41335000Y8020000D01*
X42120447Y8020000D01*
X42217575Y8222297D01*
X42242425Y8222297D01*
X42339553Y8020000D01*
X43125000Y8020000D01*
X43125000Y8917478D01*
X43875000Y8917478D01*
X43875000Y8020000D01*
X44660447Y8020000D01*
X44757575Y8222297D01*
X44782425Y8222297D01*
X44879553Y8020000D01*
X45665000Y8020000D01*
X45665000Y8917478D01*
X46415000Y8917478D01*
X46415000Y8020000D01*
X47200447Y8020000D01*
X47297575Y8222297D01*
X47028761Y8669121D01*
X46614821Y9002109D01*
X46415000Y8917478D01*
X45665000Y8917478D01*
X45465179Y9002109D01*
X45051239Y8669121D01*
X44782425Y8222297D01*
X44757575Y8222297D01*
X44488761Y8669121D01*
X44074821Y9002109D01*
X43875000Y8917478D01*
X43125000Y8917478D01*
X42925179Y9002109D01*
X42511239Y8669121D01*
X42242425Y8222297D01*
X42217575Y8222297D01*
X41948761Y8669121D01*
X41534821Y9002109D01*
X41335000Y8917478D01*
X40585000Y8917478D01*
X40385179Y9002109D01*
X39971239Y8669121D01*
X39702425Y8222297D01*
X39379087Y8222297D01*
X39165856Y8541419D01*
X38823654Y8770071D01*
X38420000Y8850363D01*
X38016346Y8770071D01*
X37674144Y8541419D01*
X37445492Y8199217D01*
X37374766Y7843654D01*
X33008000Y12210420D01*
X33008000Y12589229D01*
X33600000Y12589229D01*
X33712952Y12610482D01*
X33816692Y12677237D01*
X33886287Y12779093D01*
X33910771Y12900000D01*
X33910771Y15100000D01*
X33889518Y15212952D01*
X33822763Y15316692D01*
X33720907Y15386287D01*
X33600000Y15410771D01*
X31400000Y15410771D01*
X31287048Y15389518D01*
X31183308Y15322763D01*
X31113713Y15220907D01*
X31089229Y15100000D01*
X30008000Y15100000D01*
X30008000Y15789580D01*
X33710420Y19492000D01*
X34014506Y19492000D01*
X34062850Y19374999D01*
X34373364Y19063943D01*
X34492000Y19014681D01*
X34492000Y17000000D01*
X34530669Y16805597D01*
X34640790Y16640790D01*
X37640790Y13640790D01*
X37805597Y13530669D01*
X38000000Y13492000D01*
X38788725Y13492000D01*
X38794612Y13462406D01*
X39099134Y13006656D01*
X39554884Y12702134D01*
X40092478Y12595200D01*
X40147522Y12595200D01*
X40685116Y12702134D01*
X41140866Y13006656D01*
X41445388Y13462406D01*
X41552322Y14000000D01*
X42947678Y14000000D01*
X43054612Y13462406D01*
X43359134Y13006656D01*
X43814884Y12702134D01*
X44352478Y12595200D01*
X44407522Y12595200D01*
X44945116Y12702134D01*
X44953706Y12707874D01*
X48072000Y9589580D01*
X48072000Y8700349D01*
X47834144Y8541419D01*
X47605492Y8199217D01*
X47525200Y7795563D01*
X47525200Y7244437D01*
X47605492Y6840783D01*
X47834144Y6498581D01*
X48072000Y6339651D01*
X48072000Y5660349D01*
X47834144Y5501419D01*
X47605492Y5159217D01*
X47525200Y4755563D01*
X47525200Y4204437D01*
X47605492Y3800783D01*
X47834144Y3458581D01*
X48176346Y3229929D01*
X48580000Y3149637D01*
X48983654Y3229929D01*
X49325856Y3458581D01*
X49554508Y3800783D01*
X49634800Y4204437D01*
X49634800Y4755563D01*
X49554508Y5159217D01*
X49325856Y5501419D01*
X49088000Y5660349D01*
X49088000Y6339651D01*
X49325856Y6498581D01*
X49554508Y6840783D01*
X49634800Y7244437D01*
X49634800Y7795563D01*
X49554508Y8199217D01*
X49325856Y8541419D01*
X49088000Y8700349D01*
X49088000Y9800000D01*
X49049331Y9994403D01*
X48939210Y10159210D01*
X45677601Y13420819D01*
X45705388Y13462406D01*
X45812322Y14000000D01*
X45705388Y14537594D01*
X45400866Y14993344D01*
X44945116Y15297866D01*
X44407522Y15404800D01*
X44352478Y15404800D01*
X43814884Y15297866D01*
X43359134Y14993344D01*
X43054612Y14537594D01*
X42947678Y14000000D01*
X41552322Y14000000D01*
X41445388Y14537594D01*
X41140866Y14993344D01*
X40685116Y15297866D01*
X40147522Y15404800D01*
X40092478Y15404800D01*
X39554884Y15297866D01*
X39099134Y14993344D01*
X38794612Y14537594D01*
X38788725Y14508000D01*
X38210420Y14508000D01*
X35508000Y17210420D01*
X35508000Y19014506D01*
X35625001Y19062850D01*
X35936057Y19373364D01*
X36090400Y19745064D01*
X36090400Y19466598D01*
X36109398Y19466598D01*
X36090400Y19447600D01*
X36090400Y19078743D01*
X36183206Y18854689D01*
X36354689Y18683206D01*
X36578743Y18590400D01*
X36947600Y18590400D01*
X37100000Y18742800D01*
X37100000Y19600000D01*
X37900000Y19600000D01*
X37900000Y18742800D01*
X38052400Y18590400D01*
X38421257Y18590400D01*
X38645311Y18683206D01*
X38816794Y18854689D01*
X38909600Y19078743D01*
X38909600Y19447600D01*
X38757200Y19600000D01*
X37900000Y19600000D01*
X37100000Y19600000D01*
X36946600Y19600000D01*
X36946600Y20400000D01*
X37100000Y20400000D01*
X37100000Y21257200D01*
X37900000Y21257200D01*
X37900000Y20400000D01*
X38757200Y20400000D01*
X38909600Y20552400D01*
X38909600Y20921257D01*
X38816794Y21145311D01*
X38645311Y21316794D01*
X38421257Y21409600D01*
X38052400Y21409600D01*
X37900000Y21257200D01*
X37100000Y21257200D01*
X36947600Y21409600D01*
X36578743Y21409600D01*
X36354689Y21316794D01*
X36183206Y21145311D01*
X36090400Y20921257D01*
X36090400Y20552400D01*
X36109398Y20533402D01*
X36090400Y20533402D01*
X36090400Y20254107D01*
X35937150Y20625001D01*
X35626636Y20936057D01*
X35220722Y21104607D01*
X34781206Y21104991D01*
X34374999Y20937150D01*
X34063943Y20626636D01*
X34014681Y20508000D01*
X33500000Y20508000D01*
X33337850Y20475746D01*
X33305596Y20469331D01*
X33140790Y20359210D01*
X29140790Y16359210D01*
X29030669Y16194403D01*
X28992000Y16000000D01*
X28992000Y9210421D01*
X28289580Y8508000D01*
X24485494Y8508000D01*
X24437150Y8625001D01*
X24126636Y8936057D01*
X23720722Y9104607D01*
X23281206Y9104991D01*
X22874999Y8937150D01*
X22563943Y8626636D01*
X22514681Y8508000D01*
X20000000Y8508000D01*
X19805597Y8469331D01*
X19640790Y8359210D01*
X18760790Y7479210D01*
X18650669Y7314403D01*
X18612000Y7120000D01*
X18612000Y6893247D01*
X18338788Y6710693D01*
X18099298Y6352270D01*
X18015200Y5929481D01*
X15144800Y5929481D01*
X15081386Y6248285D01*
X15233768Y6248285D01*
X15348259Y6033400D01*
X16180000Y6033400D01*
X16180000Y7091869D01*
X16980000Y7091869D01*
X16980000Y6033400D01*
X17811741Y6033400D01*
X17926232Y6248285D01*
X17690473Y6736954D01*
X17285655Y7098204D01*
X17186521Y7172440D01*
X16980000Y7091869D01*
X16180000Y7091869D01*
X15973479Y7172440D01*
X15874345Y7098204D01*
X15469527Y6736954D01*
X15233768Y6248285D01*
X15081386Y6248285D01*
X15060702Y6352270D01*
X14821212Y6710693D01*
X14462789Y6950183D01*
X14040000Y7034281D01*
X13617211Y6950183D01*
X13258788Y6710693D01*
X13019298Y6352270D01*
X12950818Y6008000D01*
X12610771Y6008000D01*
X12610771Y6700000D01*
X12589518Y6812952D01*
X12522763Y6916692D01*
X12420907Y6986287D01*
X12300000Y7010771D01*
X10700000Y7010771D01*
X10587048Y6989518D01*
X10483308Y6922763D01*
X10413713Y6820907D01*
X10389229Y6700000D01*
X379800Y6700000D01*
X379800Y10281206D01*
X5895009Y10281206D01*
X6062850Y9874999D01*
X6373364Y9563943D01*
X6779278Y9395393D01*
X7218794Y9395009D01*
X7625001Y9562850D01*
X7936057Y9873364D01*
X7985319Y9992000D01*
X27000000Y9992000D01*
X27194403Y10030669D01*
X27359210Y10140790D01*
X28359211Y11140790D01*
X28469331Y11305597D01*
X28508000Y11500000D01*
X28508000Y16789580D01*
X33710421Y21992000D01*
X45992000Y21992000D01*
X45992000Y21110771D01*
X45700000Y21110771D01*
X45587048Y21089518D01*
X45483308Y21022763D01*
X45413713Y20920907D01*
X45389229Y20800000D01*
X45389229Y19200000D01*
X45410482Y19087048D01*
X45477237Y18983308D01*
X45579093Y18913713D01*
X45700000Y18889229D01*
X45992000Y18889229D01*
X45992000Y17500000D01*
X46030669Y17305597D01*
X46140790Y17140790D01*
X49640789Y13640790D01*
X49717803Y13589331D01*
X49805597Y13530669D01*
X50000000Y13492000D01*
X50589229Y13492000D01*
X50589229Y12900000D01*
X50610482Y12787048D01*
X50677237Y12683308D01*
X50779093Y12613713D01*
X50900000Y12589229D01*
X53100000Y12589229D01*
X53212952Y12610482D01*
X53316692Y12677237D01*
X53386287Y12779093D01*
X53410771Y12900000D01*
X53410771Y15100000D01*
X53389518Y15212952D01*
X53322763Y15316692D01*
X53220907Y15386287D01*
X53100000Y15410771D01*
X50900000Y15410771D01*
X50787048Y15389518D01*
X50683308Y15322763D01*
X50613713Y15220907D01*
X50589229Y15100000D01*
X50589229Y14508000D01*
X50210421Y14508000D01*
X47008000Y17710420D01*
X47008000Y18853805D01*
X48419491Y18853805D01*
X48512209Y18648094D01*
X49066692Y18564332D01*
X49487791Y18648094D01*
X49580509Y18853805D01*
X49000000Y19434315D01*
X48419491Y18853805D01*
X47008000Y18853805D01*
X47008000Y18889229D01*
X47300000Y18889229D01*
X47412952Y18910482D01*
X47516692Y18977237D01*
X47586287Y19079093D01*
X47610771Y19200000D01*
X47610771Y19699844D01*
X47648094Y19512209D01*
X47853805Y19419491D01*
X48434315Y20000000D01*
X49565685Y20000000D01*
X50146195Y19419491D01*
X50351906Y19512209D01*
X50435668Y20066692D01*
X50351906Y20487791D01*
X50146195Y20580509D01*
X49565685Y20000000D01*
X48434315Y20000000D01*
X47853805Y20580509D01*
X47648094Y20487791D01*
X47610771Y20240722D01*
X47610771Y20800000D01*
X47589518Y20912952D01*
X47522763Y21016692D01*
X47420907Y21086287D01*
X47300000Y21110771D01*
X47008000Y21110771D01*
X47008000Y21146195D01*
X48419491Y21146195D01*
X49000000Y20565685D01*
X49580509Y21146195D01*
X49487791Y21351906D01*
X48933308Y21435668D01*
X48512209Y21351906D01*
X48419491Y21146195D01*
X47008000Y21146195D01*
X47008000Y24853805D01*
X48419491Y24853805D01*
X48512209Y24648094D01*
X49066692Y24564332D01*
X49487791Y24648094D01*
X49580509Y24853805D01*
X49000000Y25434315D01*
X48419491Y24853805D01*
X47008000Y24853805D01*
X47008000Y25014506D01*
X47125001Y25062850D01*
X47436057Y25373364D01*
X47598092Y25763587D01*
X47648094Y25512209D01*
X47853805Y25419491D01*
X48434315Y26000000D01*
X49565685Y26000000D01*
X50146195Y25419491D01*
X50351906Y25512209D01*
X50435668Y26066692D01*
X50351906Y26487791D01*
X50146195Y26580509D01*
X49565685Y26000000D01*
X48434315Y26000000D01*
X47853805Y26580509D01*
X47648094Y26487791D01*
X47604977Y26202365D01*
X47604991Y26218794D01*
X47437150Y26625001D01*
X47126636Y26936057D01*
X47008000Y26985319D01*
X47008000Y27146195D01*
X48419491Y27146195D01*
X49000000Y26565685D01*
X49580509Y27146195D01*
X49487791Y27351906D01*
X48933308Y27435668D01*
X48512209Y27351906D01*
X48419491Y27146195D01*
X47008000Y27146195D01*
X47008000Y28589229D01*
X48600000Y28589229D01*
X48712952Y28610482D01*
X48816692Y28677237D01*
X48886287Y28779093D01*
X48910771Y28900000D01*
X48910771Y29353805D01*
X53919491Y29353805D01*
X54012209Y29148094D01*
X54566692Y29064332D01*
X54987791Y29148094D01*
X55080509Y29353805D01*
X54500000Y29934315D01*
X53919491Y29353805D01*
X48910771Y29353805D01*
X48910771Y30433308D01*
X53064332Y30433308D01*
X53148094Y30012209D01*
X53353805Y29919491D01*
X53934315Y30500000D01*
X55065685Y30500000D01*
X55646195Y29919491D01*
X55851906Y30012209D01*
X55935668Y30566692D01*
X55851906Y30987791D01*
X55646195Y31080509D01*
X55065685Y30500000D01*
X53934315Y30500000D01*
X53353805Y31080509D01*
X53148094Y30987791D01*
X53064332Y30433308D01*
X48910771Y30433308D01*
X48910771Y31100000D01*
X48889518Y31212952D01*
X48822763Y31316692D01*
X48720907Y31386287D01*
X48600000Y31410771D01*
X46400000Y31410771D01*
X46287048Y31389518D01*
X46183308Y31322763D01*
X46113713Y31220907D01*
X46089229Y31100000D01*
X46089229Y30508000D01*
X42685327Y30508000D01*
X42455525Y30851922D01*
X42064660Y31113090D01*
X41603603Y31204800D01*
X41556397Y31204800D01*
X41095340Y31113090D01*
X40704475Y30851922D01*
X40443307Y30461057D01*
X40351597Y30000000D01*
X40443307Y29538943D01*
X40704475Y29148078D01*
X41095340Y28886910D01*
X41556397Y28795200D01*
X41603603Y28795200D01*
X42064660Y28886910D01*
X42455525Y29148078D01*
X42685327Y29492000D01*
X45992000Y29492000D01*
X45992000Y26985494D01*
X45874999Y26937150D01*
X45563943Y26626636D01*
X45395393Y26220722D01*
X45395009Y25781206D01*
X45562850Y25374999D01*
X45873364Y25063943D01*
X45992000Y25014681D01*
X45992000Y23008000D01*
X33500000Y23008000D01*
X33305597Y22969331D01*
X33140790Y22859211D01*
X27640790Y17359210D01*
X27530669Y17194403D01*
X27492000Y17000000D01*
X27492000Y11710421D01*
X26789580Y11008000D01*
X12008000Y11008000D01*
X12008000Y11726753D01*
X12281212Y11909307D01*
X12520702Y12267730D01*
X12604800Y12690519D01*
X12604800Y13549481D01*
X12520702Y13972270D01*
X12281212Y14330693D01*
X11922789Y14570183D01*
X11500000Y14654281D01*
X11077211Y14570183D01*
X10718788Y14330693D01*
X10479298Y13972270D01*
X10395200Y13549481D01*
X10395200Y12690519D01*
X10479298Y12267730D01*
X10718788Y11909307D01*
X10992000Y11726753D01*
X10992000Y11008000D01*
X7985494Y11008000D01*
X7937150Y11125001D01*
X7626636Y11436057D01*
X7236413Y11598092D01*
X7487791Y11648094D01*
X7580509Y11853805D01*
X7000000Y12434315D01*
X6419491Y11853805D01*
X6512209Y11648094D01*
X6797635Y11604977D01*
X6781206Y11604991D01*
X6374999Y11437150D01*
X6063943Y11126636D01*
X5895393Y10720722D01*
X5895009Y10281206D01*
X379800Y10281206D01*
X379800Y12933308D01*
X5564332Y12933308D01*
X5648094Y12512209D01*
X5853805Y12419491D01*
X6434315Y13000000D01*
X7565685Y13000000D01*
X8146195Y12419491D01*
X8351906Y12512209D01*
X8435668Y13066692D01*
X8351906Y13487791D01*
X8146195Y13580509D01*
X7565685Y13000000D01*
X6434315Y13000000D01*
X5853805Y13580509D01*
X5648094Y13487791D01*
X5564332Y12933308D01*
X379800Y12933308D01*
X379800Y14146195D01*
X6419491Y14146195D01*
X7000000Y13565685D01*
X7580509Y14146195D01*
X7487791Y14351906D01*
X6933308Y14435668D01*
X6512209Y14351906D01*
X6419491Y14146195D01*
X379800Y14146195D01*
X379800Y24642578D01*
X2194888Y24642578D01*
X2469073Y23978999D01*
X2976328Y23470857D01*
X3639428Y23195514D01*
X4357422Y23194888D01*
X5021001Y23469073D01*
X5529143Y23976328D01*
X5804486Y24639428D01*
X5805112Y25357422D01*
X5530927Y26021001D01*
X5023672Y26529143D01*
X4368944Y26801010D01*
X8995026Y26801010D01*
X9147675Y26431570D01*
X9430083Y26148669D01*
X9492000Y26122959D01*
X9492000Y24000000D01*
X9530669Y23805597D01*
X9640790Y23640790D01*
X12640790Y20640790D01*
X12805597Y20530669D01*
X13000000Y20492000D01*
X13014506Y20492000D01*
X13062850Y20374999D01*
X13373364Y20063943D01*
X13492000Y20014681D01*
X13492000Y17508000D01*
X12245493Y17508000D01*
X12110186Y17710501D01*
X11784205Y17928314D01*
X11399685Y18004800D01*
X11360315Y18004800D01*
X10975795Y17928314D01*
X10649814Y17710501D01*
X10432001Y17384520D01*
X10355515Y17000000D01*
X10432001Y16615480D01*
X10649814Y16289499D01*
X10975795Y16071686D01*
X11360315Y15995200D01*
X11399685Y15995200D01*
X11784205Y16071686D01*
X12110186Y16289499D01*
X12245493Y16492000D01*
X13492000Y16492000D01*
X13492000Y14486520D01*
X13258788Y14330693D01*
X13019298Y13972270D01*
X12935200Y13549481D01*
X12935200Y12690519D01*
X13019298Y12267730D01*
X13258788Y11909307D01*
X13617211Y11669817D01*
X14040000Y11585719D01*
X14462789Y11669817D01*
X14821212Y11909307D01*
X15060702Y12267730D01*
X15144800Y12690519D01*
X15144800Y13549481D01*
X15060702Y13972270D01*
X14821212Y14330693D01*
X14508000Y14539974D01*
X14508000Y20014506D01*
X14625001Y20062850D01*
X14936057Y20373364D01*
X15104607Y20779278D01*
X15104608Y20781206D01*
X15395009Y20781206D01*
X15562850Y20374999D01*
X15873364Y20063943D01*
X15992000Y20014681D01*
X15992000Y14459793D01*
X15798788Y14330693D01*
X15559298Y13972270D01*
X15475200Y13549481D01*
X15475200Y12690519D01*
X15559298Y12267730D01*
X15798788Y11909307D01*
X16157211Y11669817D01*
X16580000Y11585719D01*
X17002789Y11669817D01*
X17361212Y11909307D01*
X17600702Y12267730D01*
X17621385Y12371715D01*
X17773768Y12371715D01*
X18009527Y11883046D01*
X18414345Y11521796D01*
X18513479Y11447560D01*
X18720000Y11528131D01*
X18720000Y12586600D01*
X19520000Y12586600D01*
X19520000Y11528131D01*
X19726521Y11447560D01*
X19825655Y11521796D01*
X20230473Y11883046D01*
X20466232Y12371715D01*
X20351741Y12586600D01*
X19520000Y12586600D01*
X18720000Y12586600D01*
X17888259Y12586600D01*
X17773768Y12371715D01*
X17621385Y12371715D01*
X17684800Y12690519D01*
X17684800Y13549481D01*
X17621386Y13868285D01*
X17773768Y13868285D01*
X17888259Y13653400D01*
X18720000Y13653400D01*
X18720000Y14711869D01*
X19520000Y14711869D01*
X19520000Y13653400D01*
X20351741Y13653400D01*
X20466232Y13868285D01*
X20230473Y14356954D01*
X19825655Y14718204D01*
X19726521Y14792440D01*
X19520000Y14711869D01*
X18720000Y14711869D01*
X18513479Y14792440D01*
X18414345Y14718204D01*
X18009527Y14356954D01*
X17773768Y13868285D01*
X17621386Y13868285D01*
X17600702Y13972270D01*
X17361212Y14330693D01*
X17008000Y14566701D01*
X17008000Y16492000D01*
X18122706Y16492000D01*
X18147675Y16431570D01*
X18430083Y16148669D01*
X18799256Y15995375D01*
X19198990Y15995026D01*
X19568430Y16147675D01*
X19851331Y16430083D01*
X20004625Y16799256D01*
X20004974Y17198990D01*
X19852325Y17568430D01*
X19569917Y17851331D01*
X19200744Y18004625D01*
X18801010Y18004974D01*
X18431570Y17852325D01*
X18148669Y17569917D01*
X18122959Y17508000D01*
X17008000Y17508000D01*
X17008000Y20014506D01*
X17125001Y20062850D01*
X17436057Y20373364D01*
X17485319Y20492000D01*
X19500000Y20492000D01*
X19694403Y20530669D01*
X19859210Y20640790D01*
X22479211Y23260790D01*
X22589331Y23425597D01*
X22628000Y23620000D01*
X22628000Y25141039D01*
X22850186Y25289499D01*
X23067999Y25615480D01*
X23144485Y26000000D01*
X23067999Y26384520D01*
X22850186Y26710501D01*
X22524205Y26928314D01*
X22139685Y27004800D01*
X22100315Y27004800D01*
X21715795Y26928314D01*
X21389814Y26710501D01*
X21172001Y26384520D01*
X21095515Y26000000D01*
X21172001Y25615480D01*
X21389814Y25289499D01*
X21612000Y25141039D01*
X21612000Y23830421D01*
X19289580Y21508000D01*
X17485494Y21508000D01*
X17437150Y21625001D01*
X17126636Y21936057D01*
X16720722Y22104607D01*
X16281206Y22104991D01*
X15874999Y21937150D01*
X15563943Y21626636D01*
X15395393Y21220722D01*
X15395009Y20781206D01*
X15104608Y20781206D01*
X15104991Y21218794D01*
X14937150Y21625001D01*
X14626636Y21936057D01*
X14220722Y22104607D01*
X13781206Y22104991D01*
X13374999Y21937150D01*
X13077876Y21640544D01*
X10508000Y24210420D01*
X10508000Y25801010D01*
X13495026Y25801010D01*
X13647675Y25431570D01*
X13930083Y25148669D01*
X14299256Y24995375D01*
X14698990Y24995026D01*
X15068430Y25147675D01*
X15351331Y25430083D01*
X15504625Y25799256D01*
X15504974Y26198990D01*
X15352325Y26568430D01*
X15069917Y26851331D01*
X15008000Y26877041D01*
X15008000Y28289580D01*
X16710420Y29992000D01*
X18014506Y29992000D01*
X18062850Y29874999D01*
X18373364Y29563943D01*
X18779278Y29395393D01*
X19218794Y29395009D01*
X19625001Y29562850D01*
X19936057Y29873364D01*
X19985319Y29992000D01*
X23669580Y29992000D01*
X24539448Y29122132D01*
X24495200Y28899685D01*
X24495200Y28860315D01*
X24571686Y28475795D01*
X24789499Y28149814D01*
X25115480Y27932001D01*
X25500000Y27855515D01*
X25884520Y27932001D01*
X26210501Y28149814D01*
X26428314Y28475795D01*
X26504800Y28860315D01*
X26504800Y28899685D01*
X26428314Y29284205D01*
X26210501Y29610186D01*
X25884520Y29827999D01*
X25524132Y29899685D01*
X29495200Y29899685D01*
X29495200Y29860315D01*
X29571686Y29475795D01*
X29789499Y29149814D01*
X30115480Y28932001D01*
X30500000Y28855515D01*
X30884520Y28932001D01*
X30992000Y29003817D01*
X30992000Y26877294D01*
X30931570Y26852325D01*
X30648669Y26569917D01*
X30495375Y26200744D01*
X30495026Y25801010D01*
X30647675Y25431570D01*
X30930083Y25148669D01*
X31299256Y24995375D01*
X31698990Y24995026D01*
X32068430Y25147675D01*
X32351331Y25430083D01*
X32504625Y25799256D01*
X32504974Y26198990D01*
X32352325Y26568430D01*
X32069917Y26851331D01*
X32008000Y26877041D01*
X32008000Y29372000D01*
X35289229Y29372000D01*
X35289229Y29100000D01*
X35310482Y28987048D01*
X35377237Y28883308D01*
X35479093Y28813713D01*
X35600000Y28789229D01*
X37400000Y28789229D01*
X37512952Y28810482D01*
X37616692Y28877237D01*
X37686287Y28979093D01*
X37710771Y29100000D01*
X37710771Y30000000D01*
X37811597Y30000000D01*
X37903307Y29538943D01*
X38164475Y29148078D01*
X38555340Y28886910D01*
X38612000Y28875640D01*
X38612000Y26858961D01*
X38389814Y26710501D01*
X38172001Y26384520D01*
X38095515Y26000000D01*
X38172001Y25615480D01*
X38389814Y25289499D01*
X38715795Y25071686D01*
X39100315Y24995200D01*
X39139685Y24995200D01*
X39524205Y25071686D01*
X39850186Y25289499D01*
X40067999Y25615480D01*
X40144485Y26000000D01*
X40067999Y26384520D01*
X39850186Y26710501D01*
X39628000Y26858961D01*
X39628000Y28955960D01*
X39915525Y29148078D01*
X40176693Y29538943D01*
X40268403Y30000000D01*
X40176693Y30461057D01*
X39915525Y30851922D01*
X39548000Y31097495D01*
X39548000Y36329580D01*
X40330420Y37112000D01*
X46190773Y37112000D01*
X46202134Y37054884D01*
X46506656Y36599134D01*
X46962406Y36294612D01*
X47500000Y36187678D01*
X48037594Y36294612D01*
X48079181Y36322399D01*
X51760790Y32640790D01*
X51925597Y32530669D01*
X52120000Y32492000D01*
X53389229Y32492000D01*
X53389229Y32200000D01*
X53410482Y32087048D01*
X53477237Y31983308D01*
X53579093Y31913713D01*
X53700000Y31889229D01*
X54199844Y31889229D01*
X54012209Y31851906D01*
X53919491Y31646195D01*
X54500000Y31065685D01*
X55080509Y31646195D01*
X54987791Y31851906D01*
X54740722Y31889229D01*
X55300000Y31889229D01*
X55412952Y31910482D01*
X55516692Y31977237D01*
X55586287Y32079093D01*
X55610771Y32200000D01*
X55610771Y33392351D01*
X55899210Y33680790D01*
X56009331Y33845596D01*
X56048000Y34040000D01*
X56048000Y37954631D01*
X56356567Y38160809D01*
X56606896Y38535453D01*
X56694800Y38977376D01*
X56694800Y39022624D01*
X56606896Y39464547D01*
X56356567Y39839191D01*
X55981923Y40089520D01*
X55540000Y40177424D01*
X55098077Y40089520D01*
X54723433Y39839191D01*
X54473104Y39464547D01*
X54459600Y39396658D01*
X54459600Y39533402D01*
X54415602Y39533402D01*
X54459600Y39577400D01*
X54459600Y39971257D01*
X54366794Y40195311D01*
X54195311Y40366794D01*
X53971257Y40459600D01*
X53577400Y40459600D01*
X53425000Y40307200D01*
X53425000Y39425000D01*
X53553400Y39425000D01*
X53553400Y38575000D01*
X53425000Y38575000D01*
X53425000Y37692800D01*
X53577400Y37540400D01*
X53971257Y37540400D01*
X54195311Y37633206D01*
X54366794Y37804689D01*
X54459600Y38028743D01*
X54459600Y38422600D01*
X54415602Y38466598D01*
X54459600Y38466598D01*
X54459600Y38603342D01*
X54473104Y38535453D01*
X54723433Y38160809D01*
X55032000Y37954631D01*
X55032000Y34250420D01*
X54892351Y34110771D01*
X53700000Y34110771D01*
X53587048Y34089518D01*
X53483308Y34022763D01*
X53413713Y33920907D01*
X53389229Y33800000D01*
X53389229Y33508000D01*
X52330420Y33508000D01*
X48792126Y37046294D01*
X48797866Y37054884D01*
X48904800Y37592478D01*
X48904800Y37647522D01*
X48797866Y38185116D01*
X48639185Y38422600D01*
X51540400Y38422600D01*
X51540400Y38028743D01*
X51633206Y37804689D01*
X51804689Y37633206D01*
X52028743Y37540400D01*
X52422600Y37540400D01*
X52575000Y37692800D01*
X52575000Y38575000D01*
X51692800Y38575000D01*
X51540400Y38422600D01*
X48639185Y38422600D01*
X48493344Y38640866D01*
X48037594Y38945388D01*
X47500000Y39052322D01*
X46962406Y38945388D01*
X46506656Y38640866D01*
X46202134Y38185116D01*
X46190773Y38128000D01*
X40120000Y38128000D01*
X39925597Y38089331D01*
X39760790Y37979210D01*
X38680790Y36899210D01*
X38570669Y36734403D01*
X38532000Y36540000D01*
X38532000Y31097495D01*
X38164475Y30851922D01*
X37903307Y30461057D01*
X37811597Y30000000D01*
X37710771Y30000000D01*
X37710771Y30900000D01*
X37689518Y31012952D01*
X37622763Y31116692D01*
X37520907Y31186287D01*
X37400000Y31210771D01*
X35600000Y31210771D01*
X35487048Y31189518D01*
X35383308Y31122763D01*
X35313713Y31020907D01*
X35289229Y30900000D01*
X35289229Y30388000D01*
X31358961Y30388000D01*
X31210501Y30610186D01*
X30884520Y30827999D01*
X30500000Y30904485D01*
X30115480Y30827999D01*
X29789499Y30610186D01*
X29571686Y30284205D01*
X29495200Y29899685D01*
X25524132Y29899685D01*
X25500000Y29904485D01*
X25244715Y29853705D01*
X24239210Y30859210D01*
X24074403Y30969331D01*
X23880000Y31008000D01*
X19985494Y31008000D01*
X19937150Y31125001D01*
X19626636Y31436057D01*
X19220722Y31604607D01*
X18781206Y31604991D01*
X18374999Y31437150D01*
X18063943Y31126636D01*
X18014681Y31008000D01*
X16500000Y31008000D01*
X16305596Y30969331D01*
X16140790Y30859210D01*
X14140790Y28859210D01*
X14030669Y28694403D01*
X13992000Y28500000D01*
X13992000Y26877294D01*
X13931570Y26852325D01*
X13648669Y26569917D01*
X13495375Y26200744D01*
X13495026Y25801010D01*
X10508000Y25801010D01*
X10508000Y26122706D01*
X10568430Y26147675D01*
X10851331Y26430083D01*
X11004625Y26799256D01*
X11004974Y27198990D01*
X10852325Y27568430D01*
X10569917Y27851331D01*
X10200744Y28004625D01*
X9801010Y28004974D01*
X9431570Y27852325D01*
X9148669Y27569917D01*
X8995375Y27200744D01*
X8995026Y26801010D01*
X4368944Y26801010D01*
X4360572Y26804486D01*
X3642578Y26805112D01*
X2978999Y26530927D01*
X2470857Y26023672D01*
X2195514Y25360572D01*
X2194888Y24642578D01*
X379800Y24642578D01*
X379800Y39850000D01*
X6339229Y39850000D01*
X6339229Y38150000D01*
X6360482Y38037048D01*
X6427237Y37933308D01*
X6529093Y37863713D01*
X6650000Y37839229D01*
X6992000Y37839229D01*
X6992000Y35500000D01*
X7030669Y35305597D01*
X7140790Y35140790D01*
X8020790Y34260790D01*
X8185597Y34150669D01*
X8380000Y34112000D01*
X9141039Y34112000D01*
X9289499Y33889814D01*
X9615480Y33672001D01*
X10000000Y33595515D01*
X10384520Y33672001D01*
X10710501Y33889814D01*
X10928314Y34215795D01*
X11004800Y34600315D01*
X11004800Y34639685D01*
X10928314Y35024205D01*
X10710501Y35350186D01*
X10384520Y35567999D01*
X10000000Y35644485D01*
X9615480Y35567999D01*
X9289499Y35350186D01*
X9141039Y35128000D01*
X8590420Y35128000D01*
X8008000Y35710420D01*
X8008000Y37839229D01*
X8350000Y37839229D01*
X8462952Y37860482D01*
X8566692Y37927237D01*
X8636287Y38029093D01*
X8660771Y38150000D01*
X8660771Y38466598D01*
X8761070Y38466598D01*
X8727288Y38361789D01*
X9071445Y37908017D01*
X9401794Y37687321D01*
X9615000Y37763818D01*
X9615000Y38575000D01*
X10465000Y38575000D01*
X10465000Y37763818D01*
X10678206Y37687321D01*
X11008555Y37908017D01*
X11352712Y38361789D01*
X11283989Y38575000D01*
X10465000Y38575000D01*
X9615000Y38575000D01*
X9486600Y38575000D01*
X9486600Y39425000D01*
X9615000Y39425000D01*
X9615000Y40236182D01*
X10465000Y40236182D01*
X10465000Y39425000D01*
X11283989Y39425000D01*
X11352712Y39638211D01*
X11192084Y39850000D01*
X16839229Y39850000D01*
X16839229Y38150000D01*
X16860482Y38037048D01*
X16927237Y37933308D01*
X17029093Y37863713D01*
X17150000Y37839229D01*
X17492000Y37839229D01*
X17492000Y34000000D01*
X17530669Y33805597D01*
X17640790Y33640790D01*
X17889229Y33392351D01*
X17889229Y32200000D01*
X17910482Y32087048D01*
X17977237Y31983308D01*
X18079093Y31913713D01*
X18200000Y31889229D01*
X19800000Y31889229D01*
X19912952Y31910482D01*
X20016692Y31977237D01*
X20086287Y32079093D01*
X20110771Y32200000D01*
X20110771Y33800000D01*
X20089518Y33912952D01*
X20022763Y34016692D01*
X19920907Y34086287D01*
X19800000Y34110771D01*
X18607649Y34110771D01*
X18508000Y34210420D01*
X18508000Y35453560D01*
X24948534Y35453560D01*
X25025754Y35251800D01*
X25539519Y35165328D01*
X25974246Y35251800D01*
X26051466Y35453560D01*
X25500000Y36005025D01*
X24948534Y35453560D01*
X18508000Y35453560D01*
X18508000Y36460481D01*
X24165328Y36460481D01*
X24251800Y36025754D01*
X24453560Y35948534D01*
X25005025Y36500000D01*
X25994975Y36500000D01*
X26546440Y35948534D01*
X26748200Y36025754D01*
X26834672Y36539519D01*
X26748200Y36974246D01*
X26546440Y37051466D01*
X25994975Y36500000D01*
X25005025Y36500000D01*
X24453560Y37051466D01*
X24251800Y36974246D01*
X24165328Y36460481D01*
X18508000Y36460481D01*
X18508000Y37546440D01*
X24948534Y37546440D01*
X25500000Y36994975D01*
X25806035Y37301010D01*
X29495026Y37301010D01*
X29647675Y36931570D01*
X29930083Y36648669D01*
X30299256Y36495375D01*
X30698990Y36495026D01*
X31068430Y36647675D01*
X31351331Y36930083D01*
X31504625Y37299256D01*
X31504974Y37698990D01*
X31352325Y38068430D01*
X31069917Y38351331D01*
X31008000Y38377041D01*
X31008000Y39014507D01*
X31210501Y39149814D01*
X31428314Y39475795D01*
X31504800Y39860315D01*
X31504800Y39899685D01*
X31490564Y39971257D01*
X51540400Y39971257D01*
X51540400Y39577400D01*
X51692800Y39425000D01*
X52575000Y39425000D01*
X52575000Y40307200D01*
X52422600Y40459600D01*
X52028743Y40459600D01*
X51804689Y40366794D01*
X51633206Y40195311D01*
X51540400Y39971257D01*
X31490564Y39971257D01*
X31428314Y40284205D01*
X31210501Y40610186D01*
X30884520Y40827999D01*
X30500000Y40904485D01*
X30115480Y40827999D01*
X29789499Y40610186D01*
X29571686Y40284205D01*
X29495200Y39899685D01*
X29495200Y39860315D01*
X29571686Y39475795D01*
X29789499Y39149814D01*
X29992000Y39014507D01*
X29992000Y38377294D01*
X29931570Y38352325D01*
X29648669Y38069917D01*
X29495375Y37700744D01*
X29495026Y37301010D01*
X25806035Y37301010D01*
X26051466Y37546440D01*
X25974246Y37748200D01*
X25460481Y37834672D01*
X25025754Y37748200D01*
X24948534Y37546440D01*
X18508000Y37546440D01*
X18508000Y37839229D01*
X18850000Y37839229D01*
X18962952Y37860482D01*
X19066692Y37927237D01*
X19136287Y38029093D01*
X19160771Y38150000D01*
X19160771Y38466598D01*
X19261070Y38466598D01*
X19227288Y38361789D01*
X19571445Y37908017D01*
X19901794Y37687321D01*
X20115000Y37763818D01*
X20115000Y38575000D01*
X20965000Y38575000D01*
X20965000Y37763818D01*
X21178206Y37687321D01*
X21508555Y37908017D01*
X21852712Y38361789D01*
X21783989Y38575000D01*
X20965000Y38575000D01*
X20115000Y38575000D01*
X19986600Y38575000D01*
X19986600Y39425000D01*
X20115000Y39425000D01*
X20115000Y40236182D01*
X20965000Y40236182D01*
X20965000Y39425000D01*
X21783989Y39425000D01*
X21852712Y39638211D01*
X21508555Y40091983D01*
X21178206Y40312679D01*
X20965000Y40236182D01*
X20115000Y40236182D01*
X19901794Y40312679D01*
X19571445Y40091983D01*
X19227288Y39638211D01*
X19261070Y39533402D01*
X19160771Y39533402D01*
X19160771Y39850000D01*
X19139518Y39962952D01*
X19072763Y40066692D01*
X18970907Y40136287D01*
X18850000Y40160771D01*
X17150000Y40160771D01*
X17037048Y40139518D01*
X16933308Y40072763D01*
X16863713Y39970907D01*
X16839229Y39850000D01*
X11192084Y39850000D01*
X11008555Y40091983D01*
X10678206Y40312679D01*
X10465000Y40236182D01*
X9615000Y40236182D01*
X9401794Y40312679D01*
X9071445Y40091983D01*
X8727288Y39638211D01*
X8761070Y39533402D01*
X8660771Y39533402D01*
X8660771Y39850000D01*
X8639518Y39962952D01*
X8572763Y40066692D01*
X8470907Y40136287D01*
X8350000Y40160771D01*
X6650000Y40160771D01*
X6537048Y40139518D01*
X6433308Y40072763D01*
X6363713Y39970907D01*
X6339229Y39850000D01*
X379800Y39850000D01*
X379800Y46453560D01*
X29948534Y46453560D01*
X30025754Y46251800D01*
X30539519Y46165328D01*
X30974246Y46251800D01*
X31051466Y46453560D01*
X30845026Y46660000D01*
X36944944Y46660000D01*
X37101356Y45873662D01*
X37546781Y45207037D01*
X38213406Y44761612D01*
X38999744Y44605200D01*
X39080256Y44605200D01*
X39866594Y44761612D01*
X40533219Y45207037D01*
X40978644Y45873662D01*
X41135056Y46660000D01*
X40978644Y47446338D01*
X40533219Y48112963D01*
X39866594Y48558388D01*
X39080256Y48714800D01*
X38999744Y48714800D01*
X38213406Y48558388D01*
X37546781Y48112963D01*
X37101356Y47446338D01*
X36944944Y46660000D01*
X30845026Y46660000D01*
X30500000Y47005025D01*
X29948534Y46453560D01*
X379800Y46453560D01*
X379800Y47460481D01*
X29165328Y47460481D01*
X29251800Y47025754D01*
X29453560Y46948534D01*
X30005025Y47500000D01*
X30994975Y47500000D01*
X31546440Y46948534D01*
X31748200Y47025754D01*
X31834672Y47539519D01*
X31748200Y47974246D01*
X31546440Y48051466D01*
X30994975Y47500000D01*
X30005025Y47500000D01*
X29453560Y48051466D01*
X29251800Y47974246D01*
X29165328Y47460481D01*
X379800Y47460481D01*
X379800Y48546440D01*
X29948534Y48546440D01*
X30500000Y47994975D01*
X31051466Y48546440D01*
X30974246Y48748200D01*
X30460481Y48834672D01*
X30025754Y48748200D01*
X29948534Y48546440D01*
X379800Y48546440D01*
X379800Y49620200D01*
X59620200Y49620200D01*
X59620200Y379800D01*
M02*
