G04 #@! TF.FileFunction,Legend,Top*
%FSLAX46Y46*%
G04 Gerber Fmt 4.6, Leading zero omitted, Abs format (unit mm)*
G04 Created by KiCad (PCBNEW 4.0.7) date Wed Nov 22 16:36:53 2017*
%MOMM*%
%LPD*%
G01*
G04 APERTURE LIST*
%ADD10C,0.100000*%
%ADD11C,0.304800*%
%ADD12C,0.299720*%
%ADD13C,0.120000*%
%ADD14C,0.203200*%
%ADD15C,0.150000*%
G04 APERTURE END LIST*
D10*
D11*
X33100000Y1300000D02*
X53900000Y1300000D01*
X53900000Y10700000D02*
X33100000Y10700000D01*
X33100000Y10700000D02*
X33100000Y1300000D01*
X53900000Y10700000D02*
X53900000Y1300000D01*
D12*
X45800000Y1300000D02*
X45800000Y2700000D01*
X45800000Y2700000D02*
X41200000Y2700000D01*
X41200000Y2700000D02*
X41200000Y1300000D01*
D13*
X33920000Y33690000D02*
X44160000Y33690000D01*
X33920000Y49580000D02*
X44160000Y49580000D01*
X33920000Y49580000D02*
X33920000Y33690000D01*
X44160000Y49580000D02*
X44160000Y33690000D01*
X36500000Y33690000D02*
X36500000Y31050000D01*
X39040000Y33690000D02*
X39040000Y31066000D01*
X41580000Y33690000D02*
X41580000Y31066000D01*
X33232180Y18820864D02*
G75*
G03X39267482Y18820000I3017820J1179136D01*
G01*
X33232180Y21179136D02*
G75*
G02X39267482Y21180000I3017820J-1179136D01*
G01*
X33232180Y21179136D02*
G75*
G03X33232518Y18820000I3017820J-1179136D01*
G01*
X36250000Y16800000D02*
X36250000Y23200000D01*
X36210000Y16800000D02*
X36210000Y23200000D01*
X36170000Y16800000D02*
X36170000Y23200000D01*
X36130000Y16802000D02*
X36130000Y23198000D01*
X36090000Y16803000D02*
X36090000Y23197000D01*
X36050000Y16806000D02*
X36050000Y23194000D01*
X36010000Y16808000D02*
X36010000Y23192000D01*
X35970000Y16812000D02*
X35970000Y19020000D01*
X35970000Y20980000D02*
X35970000Y23188000D01*
X35930000Y16815000D02*
X35930000Y19020000D01*
X35930000Y20980000D02*
X35930000Y23185000D01*
X35890000Y16820000D02*
X35890000Y19020000D01*
X35890000Y20980000D02*
X35890000Y23180000D01*
X35850000Y16824000D02*
X35850000Y19020000D01*
X35850000Y20980000D02*
X35850000Y23176000D01*
X35810000Y16830000D02*
X35810000Y19020000D01*
X35810000Y20980000D02*
X35810000Y23170000D01*
X35770000Y16835000D02*
X35770000Y19020000D01*
X35770000Y20980000D02*
X35770000Y23165000D01*
X35730000Y16842000D02*
X35730000Y19020000D01*
X35730000Y20980000D02*
X35730000Y23158000D01*
X35690000Y16848000D02*
X35690000Y19020000D01*
X35690000Y20980000D02*
X35690000Y23152000D01*
X35650000Y16856000D02*
X35650000Y19020000D01*
X35650000Y20980000D02*
X35650000Y23144000D01*
X35610000Y16863000D02*
X35610000Y19020000D01*
X35610000Y20980000D02*
X35610000Y23137000D01*
X35570000Y16872000D02*
X35570000Y19020000D01*
X35570000Y20980000D02*
X35570000Y23128000D01*
X35529000Y16881000D02*
X35529000Y19020000D01*
X35529000Y20980000D02*
X35529000Y23119000D01*
X35489000Y16890000D02*
X35489000Y19020000D01*
X35489000Y20980000D02*
X35489000Y23110000D01*
X35449000Y16900000D02*
X35449000Y19020000D01*
X35449000Y20980000D02*
X35449000Y23100000D01*
X35409000Y16910000D02*
X35409000Y19020000D01*
X35409000Y20980000D02*
X35409000Y23090000D01*
X35369000Y16921000D02*
X35369000Y19020000D01*
X35369000Y20980000D02*
X35369000Y23079000D01*
X35329000Y16933000D02*
X35329000Y19020000D01*
X35329000Y20980000D02*
X35329000Y23067000D01*
X35289000Y16945000D02*
X35289000Y19020000D01*
X35289000Y20980000D02*
X35289000Y23055000D01*
X35249000Y16958000D02*
X35249000Y19020000D01*
X35249000Y20980000D02*
X35249000Y23042000D01*
X35209000Y16971000D02*
X35209000Y19020000D01*
X35209000Y20980000D02*
X35209000Y23029000D01*
X35169000Y16985000D02*
X35169000Y19020000D01*
X35169000Y20980000D02*
X35169000Y23015000D01*
X35129000Y16999000D02*
X35129000Y19020000D01*
X35129000Y20980000D02*
X35129000Y23001000D01*
X35089000Y17014000D02*
X35089000Y19020000D01*
X35089000Y20980000D02*
X35089000Y22986000D01*
X35049000Y17030000D02*
X35049000Y19020000D01*
X35049000Y20980000D02*
X35049000Y22970000D01*
X35009000Y17046000D02*
X35009000Y19020000D01*
X35009000Y20980000D02*
X35009000Y22954000D01*
X34969000Y17063000D02*
X34969000Y19020000D01*
X34969000Y20980000D02*
X34969000Y22937000D01*
X34929000Y17081000D02*
X34929000Y19020000D01*
X34929000Y20980000D02*
X34929000Y22919000D01*
X34889000Y17099000D02*
X34889000Y19020000D01*
X34889000Y20980000D02*
X34889000Y22901000D01*
X34849000Y17118000D02*
X34849000Y19020000D01*
X34849000Y20980000D02*
X34849000Y22882000D01*
X34809000Y17137000D02*
X34809000Y19020000D01*
X34809000Y20980000D02*
X34809000Y22863000D01*
X34769000Y17157000D02*
X34769000Y19020000D01*
X34769000Y20980000D02*
X34769000Y22843000D01*
X34729000Y17178000D02*
X34729000Y19020000D01*
X34729000Y20980000D02*
X34729000Y22822000D01*
X34689000Y17200000D02*
X34689000Y19020000D01*
X34689000Y20980000D02*
X34689000Y22800000D01*
X34649000Y17222000D02*
X34649000Y19020000D01*
X34649000Y20980000D02*
X34649000Y22778000D01*
X34609000Y17245000D02*
X34609000Y19020000D01*
X34609000Y20980000D02*
X34609000Y22755000D01*
X34569000Y17269000D02*
X34569000Y19020000D01*
X34569000Y20980000D02*
X34569000Y22731000D01*
X34529000Y17294000D02*
X34529000Y19020000D01*
X34529000Y20980000D02*
X34529000Y22706000D01*
X34489000Y17319000D02*
X34489000Y19020000D01*
X34489000Y20980000D02*
X34489000Y22681000D01*
X34449000Y17346000D02*
X34449000Y19020000D01*
X34449000Y20980000D02*
X34449000Y22654000D01*
X34409000Y17373000D02*
X34409000Y19020000D01*
X34409000Y20980000D02*
X34409000Y22627000D01*
X34369000Y17401000D02*
X34369000Y19020000D01*
X34369000Y20980000D02*
X34369000Y22599000D01*
X34329000Y17430000D02*
X34329000Y19020000D01*
X34329000Y20980000D02*
X34329000Y22570000D01*
X34289000Y17460000D02*
X34289000Y19020000D01*
X34289000Y20980000D02*
X34289000Y22540000D01*
X34249000Y17490000D02*
X34249000Y19020000D01*
X34249000Y20980000D02*
X34249000Y22510000D01*
X34209000Y17522000D02*
X34209000Y19020000D01*
X34209000Y20980000D02*
X34209000Y22478000D01*
X34169000Y17555000D02*
X34169000Y19020000D01*
X34169000Y20980000D02*
X34169000Y22445000D01*
X34129000Y17589000D02*
X34129000Y19020000D01*
X34129000Y20980000D02*
X34129000Y22411000D01*
X34089000Y17625000D02*
X34089000Y19020000D01*
X34089000Y20980000D02*
X34089000Y22375000D01*
X34049000Y17661000D02*
X34049000Y19020000D01*
X34049000Y20980000D02*
X34049000Y22339000D01*
X34009000Y17699000D02*
X34009000Y22301000D01*
X33969000Y17738000D02*
X33969000Y22262000D01*
X33929000Y17778000D02*
X33929000Y22222000D01*
X33889000Y17820000D02*
X33889000Y22180000D01*
X33849000Y17863000D02*
X33849000Y22137000D01*
X33809000Y17908000D02*
X33809000Y22092000D01*
X33769000Y17955000D02*
X33769000Y22045000D01*
X33729000Y18003000D02*
X33729000Y21997000D01*
X33689000Y18054000D02*
X33689000Y21946000D01*
X33649000Y18106000D02*
X33649000Y21894000D01*
X33609000Y18161000D02*
X33609000Y21839000D01*
X33569000Y18219000D02*
X33569000Y21781000D01*
X33529000Y18279000D02*
X33529000Y21721000D01*
X33489000Y18342000D02*
X33489000Y21658000D01*
X33449000Y18409000D02*
X33449000Y21591000D01*
X33409000Y18480000D02*
X33409000Y21520000D01*
X33369000Y18555000D02*
X33369000Y21445000D01*
X33329000Y18636000D02*
X33329000Y21364000D01*
X33289000Y18722000D02*
X33289000Y21278000D01*
X33249000Y18816000D02*
X33249000Y21184000D01*
X33209000Y18919000D02*
X33209000Y21081000D01*
X33169000Y19034000D02*
X33169000Y20966000D01*
X33129000Y19166000D02*
X33129000Y20834000D01*
X33089000Y19324000D02*
X33089000Y20676000D01*
X33049000Y19532000D02*
X33049000Y20468000D01*
X39700000Y20000000D02*
X38500000Y20000000D01*
X39100000Y19350000D02*
X39100000Y20650000D01*
X33650000Y15280000D02*
X33650000Y15410000D01*
X33650000Y15410000D02*
X38970000Y15410000D01*
X38970000Y15410000D02*
X38970000Y15280000D01*
X33650000Y12720000D02*
X33650000Y12590000D01*
X33650000Y12590000D02*
X38970000Y12590000D01*
X38970000Y12590000D02*
X38970000Y12720000D01*
X34490000Y15410000D02*
X34490000Y12590000D01*
X55679136Y28732180D02*
G75*
G03X55680000Y34767482I-1179136J3017820D01*
G01*
X53320864Y28732180D02*
G75*
G02X53320000Y34767482I1179136J3017820D01*
G01*
X53320864Y28732180D02*
G75*
G03X55680000Y28732518I1179136J3017820D01*
G01*
X57700000Y31750000D02*
X51300000Y31750000D01*
X57700000Y31710000D02*
X51300000Y31710000D01*
X57700000Y31670000D02*
X51300000Y31670000D01*
X57698000Y31630000D02*
X51302000Y31630000D01*
X57697000Y31590000D02*
X51303000Y31590000D01*
X57694000Y31550000D02*
X51306000Y31550000D01*
X57692000Y31510000D02*
X51308000Y31510000D01*
X57688000Y31470000D02*
X55480000Y31470000D01*
X53520000Y31470000D02*
X51312000Y31470000D01*
X57685000Y31430000D02*
X55480000Y31430000D01*
X53520000Y31430000D02*
X51315000Y31430000D01*
X57680000Y31390000D02*
X55480000Y31390000D01*
X53520000Y31390000D02*
X51320000Y31390000D01*
X57676000Y31350000D02*
X55480000Y31350000D01*
X53520000Y31350000D02*
X51324000Y31350000D01*
X57670000Y31310000D02*
X55480000Y31310000D01*
X53520000Y31310000D02*
X51330000Y31310000D01*
X57665000Y31270000D02*
X55480000Y31270000D01*
X53520000Y31270000D02*
X51335000Y31270000D01*
X57658000Y31230000D02*
X55480000Y31230000D01*
X53520000Y31230000D02*
X51342000Y31230000D01*
X57652000Y31190000D02*
X55480000Y31190000D01*
X53520000Y31190000D02*
X51348000Y31190000D01*
X57644000Y31150000D02*
X55480000Y31150000D01*
X53520000Y31150000D02*
X51356000Y31150000D01*
X57637000Y31110000D02*
X55480000Y31110000D01*
X53520000Y31110000D02*
X51363000Y31110000D01*
X57628000Y31070000D02*
X55480000Y31070000D01*
X53520000Y31070000D02*
X51372000Y31070000D01*
X57619000Y31029000D02*
X55480000Y31029000D01*
X53520000Y31029000D02*
X51381000Y31029000D01*
X57610000Y30989000D02*
X55480000Y30989000D01*
X53520000Y30989000D02*
X51390000Y30989000D01*
X57600000Y30949000D02*
X55480000Y30949000D01*
X53520000Y30949000D02*
X51400000Y30949000D01*
X57590000Y30909000D02*
X55480000Y30909000D01*
X53520000Y30909000D02*
X51410000Y30909000D01*
X57579000Y30869000D02*
X55480000Y30869000D01*
X53520000Y30869000D02*
X51421000Y30869000D01*
X57567000Y30829000D02*
X55480000Y30829000D01*
X53520000Y30829000D02*
X51433000Y30829000D01*
X57555000Y30789000D02*
X55480000Y30789000D01*
X53520000Y30789000D02*
X51445000Y30789000D01*
X57542000Y30749000D02*
X55480000Y30749000D01*
X53520000Y30749000D02*
X51458000Y30749000D01*
X57529000Y30709000D02*
X55480000Y30709000D01*
X53520000Y30709000D02*
X51471000Y30709000D01*
X57515000Y30669000D02*
X55480000Y30669000D01*
X53520000Y30669000D02*
X51485000Y30669000D01*
X57501000Y30629000D02*
X55480000Y30629000D01*
X53520000Y30629000D02*
X51499000Y30629000D01*
X57486000Y30589000D02*
X55480000Y30589000D01*
X53520000Y30589000D02*
X51514000Y30589000D01*
X57470000Y30549000D02*
X55480000Y30549000D01*
X53520000Y30549000D02*
X51530000Y30549000D01*
X57454000Y30509000D02*
X55480000Y30509000D01*
X53520000Y30509000D02*
X51546000Y30509000D01*
X57437000Y30469000D02*
X55480000Y30469000D01*
X53520000Y30469000D02*
X51563000Y30469000D01*
X57419000Y30429000D02*
X55480000Y30429000D01*
X53520000Y30429000D02*
X51581000Y30429000D01*
X57401000Y30389000D02*
X55480000Y30389000D01*
X53520000Y30389000D02*
X51599000Y30389000D01*
X57382000Y30349000D02*
X55480000Y30349000D01*
X53520000Y30349000D02*
X51618000Y30349000D01*
X57363000Y30309000D02*
X55480000Y30309000D01*
X53520000Y30309000D02*
X51637000Y30309000D01*
X57343000Y30269000D02*
X55480000Y30269000D01*
X53520000Y30269000D02*
X51657000Y30269000D01*
X57322000Y30229000D02*
X55480000Y30229000D01*
X53520000Y30229000D02*
X51678000Y30229000D01*
X57300000Y30189000D02*
X55480000Y30189000D01*
X53520000Y30189000D02*
X51700000Y30189000D01*
X57278000Y30149000D02*
X55480000Y30149000D01*
X53520000Y30149000D02*
X51722000Y30149000D01*
X57255000Y30109000D02*
X55480000Y30109000D01*
X53520000Y30109000D02*
X51745000Y30109000D01*
X57231000Y30069000D02*
X55480000Y30069000D01*
X53520000Y30069000D02*
X51769000Y30069000D01*
X57206000Y30029000D02*
X55480000Y30029000D01*
X53520000Y30029000D02*
X51794000Y30029000D01*
X57181000Y29989000D02*
X55480000Y29989000D01*
X53520000Y29989000D02*
X51819000Y29989000D01*
X57154000Y29949000D02*
X55480000Y29949000D01*
X53520000Y29949000D02*
X51846000Y29949000D01*
X57127000Y29909000D02*
X55480000Y29909000D01*
X53520000Y29909000D02*
X51873000Y29909000D01*
X57099000Y29869000D02*
X55480000Y29869000D01*
X53520000Y29869000D02*
X51901000Y29869000D01*
X57070000Y29829000D02*
X55480000Y29829000D01*
X53520000Y29829000D02*
X51930000Y29829000D01*
X57040000Y29789000D02*
X55480000Y29789000D01*
X53520000Y29789000D02*
X51960000Y29789000D01*
X57010000Y29749000D02*
X55480000Y29749000D01*
X53520000Y29749000D02*
X51990000Y29749000D01*
X56978000Y29709000D02*
X55480000Y29709000D01*
X53520000Y29709000D02*
X52022000Y29709000D01*
X56945000Y29669000D02*
X55480000Y29669000D01*
X53520000Y29669000D02*
X52055000Y29669000D01*
X56911000Y29629000D02*
X55480000Y29629000D01*
X53520000Y29629000D02*
X52089000Y29629000D01*
X56875000Y29589000D02*
X55480000Y29589000D01*
X53520000Y29589000D02*
X52125000Y29589000D01*
X56839000Y29549000D02*
X55480000Y29549000D01*
X53520000Y29549000D02*
X52161000Y29549000D01*
X56801000Y29509000D02*
X52199000Y29509000D01*
X56762000Y29469000D02*
X52238000Y29469000D01*
X56722000Y29429000D02*
X52278000Y29429000D01*
X56680000Y29389000D02*
X52320000Y29389000D01*
X56637000Y29349000D02*
X52363000Y29349000D01*
X56592000Y29309000D02*
X52408000Y29309000D01*
X56545000Y29269000D02*
X52455000Y29269000D01*
X56497000Y29229000D02*
X52503000Y29229000D01*
X56446000Y29189000D02*
X52554000Y29189000D01*
X56394000Y29149000D02*
X52606000Y29149000D01*
X56339000Y29109000D02*
X52661000Y29109000D01*
X56281000Y29069000D02*
X52719000Y29069000D01*
X56221000Y29029000D02*
X52779000Y29029000D01*
X56158000Y28989000D02*
X52842000Y28989000D01*
X56091000Y28949000D02*
X52909000Y28949000D01*
X56020000Y28909000D02*
X52980000Y28909000D01*
X55945000Y28869000D02*
X53055000Y28869000D01*
X55864000Y28829000D02*
X53136000Y28829000D01*
X55778000Y28789000D02*
X53222000Y28789000D01*
X55684000Y28749000D02*
X53316000Y28749000D01*
X55581000Y28709000D02*
X53419000Y28709000D01*
X55466000Y28669000D02*
X53534000Y28669000D01*
X55334000Y28629000D02*
X53666000Y28629000D01*
X55176000Y28589000D02*
X53824000Y28589000D01*
X54968000Y28549000D02*
X54032000Y28549000D01*
X54500000Y35200000D02*
X54500000Y34000000D01*
X55150000Y34600000D02*
X53850000Y34600000D01*
X50767820Y21179136D02*
G75*
G03X44732518Y21180000I-3017820J-1179136D01*
G01*
X50767820Y18820864D02*
G75*
G02X44732518Y18820000I-3017820J1179136D01*
G01*
X50767820Y18820864D02*
G75*
G03X50767482Y21180000I-3017820J1179136D01*
G01*
X47750000Y23200000D02*
X47750000Y16800000D01*
X47790000Y23200000D02*
X47790000Y16800000D01*
X47830000Y23200000D02*
X47830000Y16800000D01*
X47870000Y23198000D02*
X47870000Y16802000D01*
X47910000Y23197000D02*
X47910000Y16803000D01*
X47950000Y23194000D02*
X47950000Y16806000D01*
X47990000Y23192000D02*
X47990000Y16808000D01*
X48030000Y23188000D02*
X48030000Y20980000D01*
X48030000Y19020000D02*
X48030000Y16812000D01*
X48070000Y23185000D02*
X48070000Y20980000D01*
X48070000Y19020000D02*
X48070000Y16815000D01*
X48110000Y23180000D02*
X48110000Y20980000D01*
X48110000Y19020000D02*
X48110000Y16820000D01*
X48150000Y23176000D02*
X48150000Y20980000D01*
X48150000Y19020000D02*
X48150000Y16824000D01*
X48190000Y23170000D02*
X48190000Y20980000D01*
X48190000Y19020000D02*
X48190000Y16830000D01*
X48230000Y23165000D02*
X48230000Y20980000D01*
X48230000Y19020000D02*
X48230000Y16835000D01*
X48270000Y23158000D02*
X48270000Y20980000D01*
X48270000Y19020000D02*
X48270000Y16842000D01*
X48310000Y23152000D02*
X48310000Y20980000D01*
X48310000Y19020000D02*
X48310000Y16848000D01*
X48350000Y23144000D02*
X48350000Y20980000D01*
X48350000Y19020000D02*
X48350000Y16856000D01*
X48390000Y23137000D02*
X48390000Y20980000D01*
X48390000Y19020000D02*
X48390000Y16863000D01*
X48430000Y23128000D02*
X48430000Y20980000D01*
X48430000Y19020000D02*
X48430000Y16872000D01*
X48471000Y23119000D02*
X48471000Y20980000D01*
X48471000Y19020000D02*
X48471000Y16881000D01*
X48511000Y23110000D02*
X48511000Y20980000D01*
X48511000Y19020000D02*
X48511000Y16890000D01*
X48551000Y23100000D02*
X48551000Y20980000D01*
X48551000Y19020000D02*
X48551000Y16900000D01*
X48591000Y23090000D02*
X48591000Y20980000D01*
X48591000Y19020000D02*
X48591000Y16910000D01*
X48631000Y23079000D02*
X48631000Y20980000D01*
X48631000Y19020000D02*
X48631000Y16921000D01*
X48671000Y23067000D02*
X48671000Y20980000D01*
X48671000Y19020000D02*
X48671000Y16933000D01*
X48711000Y23055000D02*
X48711000Y20980000D01*
X48711000Y19020000D02*
X48711000Y16945000D01*
X48751000Y23042000D02*
X48751000Y20980000D01*
X48751000Y19020000D02*
X48751000Y16958000D01*
X48791000Y23029000D02*
X48791000Y20980000D01*
X48791000Y19020000D02*
X48791000Y16971000D01*
X48831000Y23015000D02*
X48831000Y20980000D01*
X48831000Y19020000D02*
X48831000Y16985000D01*
X48871000Y23001000D02*
X48871000Y20980000D01*
X48871000Y19020000D02*
X48871000Y16999000D01*
X48911000Y22986000D02*
X48911000Y20980000D01*
X48911000Y19020000D02*
X48911000Y17014000D01*
X48951000Y22970000D02*
X48951000Y20980000D01*
X48951000Y19020000D02*
X48951000Y17030000D01*
X48991000Y22954000D02*
X48991000Y20980000D01*
X48991000Y19020000D02*
X48991000Y17046000D01*
X49031000Y22937000D02*
X49031000Y20980000D01*
X49031000Y19020000D02*
X49031000Y17063000D01*
X49071000Y22919000D02*
X49071000Y20980000D01*
X49071000Y19020000D02*
X49071000Y17081000D01*
X49111000Y22901000D02*
X49111000Y20980000D01*
X49111000Y19020000D02*
X49111000Y17099000D01*
X49151000Y22882000D02*
X49151000Y20980000D01*
X49151000Y19020000D02*
X49151000Y17118000D01*
X49191000Y22863000D02*
X49191000Y20980000D01*
X49191000Y19020000D02*
X49191000Y17137000D01*
X49231000Y22843000D02*
X49231000Y20980000D01*
X49231000Y19020000D02*
X49231000Y17157000D01*
X49271000Y22822000D02*
X49271000Y20980000D01*
X49271000Y19020000D02*
X49271000Y17178000D01*
X49311000Y22800000D02*
X49311000Y20980000D01*
X49311000Y19020000D02*
X49311000Y17200000D01*
X49351000Y22778000D02*
X49351000Y20980000D01*
X49351000Y19020000D02*
X49351000Y17222000D01*
X49391000Y22755000D02*
X49391000Y20980000D01*
X49391000Y19020000D02*
X49391000Y17245000D01*
X49431000Y22731000D02*
X49431000Y20980000D01*
X49431000Y19020000D02*
X49431000Y17269000D01*
X49471000Y22706000D02*
X49471000Y20980000D01*
X49471000Y19020000D02*
X49471000Y17294000D01*
X49511000Y22681000D02*
X49511000Y20980000D01*
X49511000Y19020000D02*
X49511000Y17319000D01*
X49551000Y22654000D02*
X49551000Y20980000D01*
X49551000Y19020000D02*
X49551000Y17346000D01*
X49591000Y22627000D02*
X49591000Y20980000D01*
X49591000Y19020000D02*
X49591000Y17373000D01*
X49631000Y22599000D02*
X49631000Y20980000D01*
X49631000Y19020000D02*
X49631000Y17401000D01*
X49671000Y22570000D02*
X49671000Y20980000D01*
X49671000Y19020000D02*
X49671000Y17430000D01*
X49711000Y22540000D02*
X49711000Y20980000D01*
X49711000Y19020000D02*
X49711000Y17460000D01*
X49751000Y22510000D02*
X49751000Y20980000D01*
X49751000Y19020000D02*
X49751000Y17490000D01*
X49791000Y22478000D02*
X49791000Y20980000D01*
X49791000Y19020000D02*
X49791000Y17522000D01*
X49831000Y22445000D02*
X49831000Y20980000D01*
X49831000Y19020000D02*
X49831000Y17555000D01*
X49871000Y22411000D02*
X49871000Y20980000D01*
X49871000Y19020000D02*
X49871000Y17589000D01*
X49911000Y22375000D02*
X49911000Y20980000D01*
X49911000Y19020000D02*
X49911000Y17625000D01*
X49951000Y22339000D02*
X49951000Y20980000D01*
X49951000Y19020000D02*
X49951000Y17661000D01*
X49991000Y22301000D02*
X49991000Y17699000D01*
X50031000Y22262000D02*
X50031000Y17738000D01*
X50071000Y22222000D02*
X50071000Y17778000D01*
X50111000Y22180000D02*
X50111000Y17820000D01*
X50151000Y22137000D02*
X50151000Y17863000D01*
X50191000Y22092000D02*
X50191000Y17908000D01*
X50231000Y22045000D02*
X50231000Y17955000D01*
X50271000Y21997000D02*
X50271000Y18003000D01*
X50311000Y21946000D02*
X50311000Y18054000D01*
X50351000Y21894000D02*
X50351000Y18106000D01*
X50391000Y21839000D02*
X50391000Y18161000D01*
X50431000Y21781000D02*
X50431000Y18219000D01*
X50471000Y21721000D02*
X50471000Y18279000D01*
X50511000Y21658000D02*
X50511000Y18342000D01*
X50551000Y21591000D02*
X50551000Y18409000D01*
X50591000Y21520000D02*
X50591000Y18480000D01*
X50631000Y21445000D02*
X50631000Y18555000D01*
X50671000Y21364000D02*
X50671000Y18636000D01*
X50711000Y21278000D02*
X50711000Y18722000D01*
X50751000Y21184000D02*
X50751000Y18816000D01*
X50791000Y21081000D02*
X50791000Y18919000D01*
X50831000Y20966000D02*
X50831000Y19034000D01*
X50871000Y20834000D02*
X50871000Y19166000D01*
X50911000Y20676000D02*
X50911000Y19324000D01*
X50951000Y20468000D02*
X50951000Y19532000D01*
X44300000Y20000000D02*
X45500000Y20000000D01*
X44900000Y20650000D02*
X44900000Y19350000D01*
X51670000Y40440000D02*
X56870000Y40440000D01*
X56870000Y40440000D02*
X56870000Y43100000D01*
X56870000Y43100000D02*
X51670000Y43100000D01*
X51670000Y43100000D02*
X51670000Y40440000D01*
X52620000Y43100000D02*
X52620000Y49100000D01*
X52620000Y49100000D02*
X53380000Y49100000D01*
X53380000Y49100000D02*
X53380000Y43100000D01*
X52680000Y43100000D02*
X52680000Y49100000D01*
X52800000Y43100000D02*
X52800000Y49100000D01*
X52920000Y43100000D02*
X52920000Y49100000D01*
X53040000Y43100000D02*
X53040000Y49100000D01*
X53160000Y43100000D02*
X53160000Y49100000D01*
X53280000Y43100000D02*
X53280000Y49100000D01*
X52620000Y40110000D02*
X52620000Y40440000D01*
X53380000Y40110000D02*
X53380000Y40440000D01*
X54270000Y40440000D02*
X54270000Y43100000D01*
X55160000Y43100000D02*
X55160000Y49100000D01*
X55160000Y49100000D02*
X55920000Y49100000D01*
X55920000Y49100000D02*
X55920000Y43100000D01*
X55160000Y40042929D02*
X55160000Y40440000D01*
X55920000Y40042929D02*
X55920000Y40440000D01*
X53000000Y37730000D02*
X51730000Y37730000D01*
X51730000Y37730000D02*
X51730000Y39000000D01*
X31360000Y35550000D02*
X29640000Y35550000D01*
X29640000Y35550000D02*
X29640000Y31830000D01*
X29640000Y31830000D02*
X31360000Y31830000D01*
X31360000Y31830000D02*
X31360000Y35550000D01*
X30500000Y36620000D02*
X30500000Y35550000D01*
X30500000Y30760000D02*
X30500000Y31830000D01*
X31360000Y45550000D02*
X29640000Y45550000D01*
X29640000Y45550000D02*
X29640000Y41830000D01*
X29640000Y41830000D02*
X31360000Y41830000D01*
X31360000Y41830000D02*
X31360000Y45550000D01*
X30500000Y46620000D02*
X30500000Y45550000D01*
X30500000Y40760000D02*
X30500000Y41830000D01*
X33450000Y26860000D02*
X33450000Y25140000D01*
X33450000Y25140000D02*
X37170000Y25140000D01*
X37170000Y25140000D02*
X37170000Y26860000D01*
X37170000Y26860000D02*
X33450000Y26860000D01*
X32380000Y26000000D02*
X33450000Y26000000D01*
X38240000Y26000000D02*
X37170000Y26000000D01*
X45190000Y27310000D02*
X50310000Y27310000D01*
X45190000Y24690000D02*
X50310000Y24690000D01*
X45190000Y27310000D02*
X45190000Y24690000D01*
X50310000Y27310000D02*
X50310000Y24690000D01*
X8310000Y14310000D02*
X8310000Y9190000D01*
X5690000Y14310000D02*
X5690000Y9190000D01*
X8310000Y14310000D02*
X5690000Y14310000D01*
X8310000Y9190000D02*
X5690000Y9190000D01*
X22190000Y4190000D02*
X22190000Y9310000D01*
X24810000Y4190000D02*
X24810000Y9310000D01*
X22190000Y4190000D02*
X24810000Y4190000D01*
X22190000Y9310000D02*
X24810000Y9310000D01*
X20179136Y28732180D02*
G75*
G03X20180000Y34767482I-1179136J3017820D01*
G01*
X17820864Y28732180D02*
G75*
G02X17820000Y34767482I1179136J3017820D01*
G01*
X17820864Y28732180D02*
G75*
G03X20180000Y28732518I1179136J3017820D01*
G01*
X22200000Y31750000D02*
X15800000Y31750000D01*
X22200000Y31710000D02*
X15800000Y31710000D01*
X22200000Y31670000D02*
X15800000Y31670000D01*
X22198000Y31630000D02*
X15802000Y31630000D01*
X22197000Y31590000D02*
X15803000Y31590000D01*
X22194000Y31550000D02*
X15806000Y31550000D01*
X22192000Y31510000D02*
X15808000Y31510000D01*
X22188000Y31470000D02*
X19980000Y31470000D01*
X18020000Y31470000D02*
X15812000Y31470000D01*
X22185000Y31430000D02*
X19980000Y31430000D01*
X18020000Y31430000D02*
X15815000Y31430000D01*
X22180000Y31390000D02*
X19980000Y31390000D01*
X18020000Y31390000D02*
X15820000Y31390000D01*
X22176000Y31350000D02*
X19980000Y31350000D01*
X18020000Y31350000D02*
X15824000Y31350000D01*
X22170000Y31310000D02*
X19980000Y31310000D01*
X18020000Y31310000D02*
X15830000Y31310000D01*
X22165000Y31270000D02*
X19980000Y31270000D01*
X18020000Y31270000D02*
X15835000Y31270000D01*
X22158000Y31230000D02*
X19980000Y31230000D01*
X18020000Y31230000D02*
X15842000Y31230000D01*
X22152000Y31190000D02*
X19980000Y31190000D01*
X18020000Y31190000D02*
X15848000Y31190000D01*
X22144000Y31150000D02*
X19980000Y31150000D01*
X18020000Y31150000D02*
X15856000Y31150000D01*
X22137000Y31110000D02*
X19980000Y31110000D01*
X18020000Y31110000D02*
X15863000Y31110000D01*
X22128000Y31070000D02*
X19980000Y31070000D01*
X18020000Y31070000D02*
X15872000Y31070000D01*
X22119000Y31029000D02*
X19980000Y31029000D01*
X18020000Y31029000D02*
X15881000Y31029000D01*
X22110000Y30989000D02*
X19980000Y30989000D01*
X18020000Y30989000D02*
X15890000Y30989000D01*
X22100000Y30949000D02*
X19980000Y30949000D01*
X18020000Y30949000D02*
X15900000Y30949000D01*
X22090000Y30909000D02*
X19980000Y30909000D01*
X18020000Y30909000D02*
X15910000Y30909000D01*
X22079000Y30869000D02*
X19980000Y30869000D01*
X18020000Y30869000D02*
X15921000Y30869000D01*
X22067000Y30829000D02*
X19980000Y30829000D01*
X18020000Y30829000D02*
X15933000Y30829000D01*
X22055000Y30789000D02*
X19980000Y30789000D01*
X18020000Y30789000D02*
X15945000Y30789000D01*
X22042000Y30749000D02*
X19980000Y30749000D01*
X18020000Y30749000D02*
X15958000Y30749000D01*
X22029000Y30709000D02*
X19980000Y30709000D01*
X18020000Y30709000D02*
X15971000Y30709000D01*
X22015000Y30669000D02*
X19980000Y30669000D01*
X18020000Y30669000D02*
X15985000Y30669000D01*
X22001000Y30629000D02*
X19980000Y30629000D01*
X18020000Y30629000D02*
X15999000Y30629000D01*
X21986000Y30589000D02*
X19980000Y30589000D01*
X18020000Y30589000D02*
X16014000Y30589000D01*
X21970000Y30549000D02*
X19980000Y30549000D01*
X18020000Y30549000D02*
X16030000Y30549000D01*
X21954000Y30509000D02*
X19980000Y30509000D01*
X18020000Y30509000D02*
X16046000Y30509000D01*
X21937000Y30469000D02*
X19980000Y30469000D01*
X18020000Y30469000D02*
X16063000Y30469000D01*
X21919000Y30429000D02*
X19980000Y30429000D01*
X18020000Y30429000D02*
X16081000Y30429000D01*
X21901000Y30389000D02*
X19980000Y30389000D01*
X18020000Y30389000D02*
X16099000Y30389000D01*
X21882000Y30349000D02*
X19980000Y30349000D01*
X18020000Y30349000D02*
X16118000Y30349000D01*
X21863000Y30309000D02*
X19980000Y30309000D01*
X18020000Y30309000D02*
X16137000Y30309000D01*
X21843000Y30269000D02*
X19980000Y30269000D01*
X18020000Y30269000D02*
X16157000Y30269000D01*
X21822000Y30229000D02*
X19980000Y30229000D01*
X18020000Y30229000D02*
X16178000Y30229000D01*
X21800000Y30189000D02*
X19980000Y30189000D01*
X18020000Y30189000D02*
X16200000Y30189000D01*
X21778000Y30149000D02*
X19980000Y30149000D01*
X18020000Y30149000D02*
X16222000Y30149000D01*
X21755000Y30109000D02*
X19980000Y30109000D01*
X18020000Y30109000D02*
X16245000Y30109000D01*
X21731000Y30069000D02*
X19980000Y30069000D01*
X18020000Y30069000D02*
X16269000Y30069000D01*
X21706000Y30029000D02*
X19980000Y30029000D01*
X18020000Y30029000D02*
X16294000Y30029000D01*
X21681000Y29989000D02*
X19980000Y29989000D01*
X18020000Y29989000D02*
X16319000Y29989000D01*
X21654000Y29949000D02*
X19980000Y29949000D01*
X18020000Y29949000D02*
X16346000Y29949000D01*
X21627000Y29909000D02*
X19980000Y29909000D01*
X18020000Y29909000D02*
X16373000Y29909000D01*
X21599000Y29869000D02*
X19980000Y29869000D01*
X18020000Y29869000D02*
X16401000Y29869000D01*
X21570000Y29829000D02*
X19980000Y29829000D01*
X18020000Y29829000D02*
X16430000Y29829000D01*
X21540000Y29789000D02*
X19980000Y29789000D01*
X18020000Y29789000D02*
X16460000Y29789000D01*
X21510000Y29749000D02*
X19980000Y29749000D01*
X18020000Y29749000D02*
X16490000Y29749000D01*
X21478000Y29709000D02*
X19980000Y29709000D01*
X18020000Y29709000D02*
X16522000Y29709000D01*
X21445000Y29669000D02*
X19980000Y29669000D01*
X18020000Y29669000D02*
X16555000Y29669000D01*
X21411000Y29629000D02*
X19980000Y29629000D01*
X18020000Y29629000D02*
X16589000Y29629000D01*
X21375000Y29589000D02*
X19980000Y29589000D01*
X18020000Y29589000D02*
X16625000Y29589000D01*
X21339000Y29549000D02*
X19980000Y29549000D01*
X18020000Y29549000D02*
X16661000Y29549000D01*
X21301000Y29509000D02*
X16699000Y29509000D01*
X21262000Y29469000D02*
X16738000Y29469000D01*
X21222000Y29429000D02*
X16778000Y29429000D01*
X21180000Y29389000D02*
X16820000Y29389000D01*
X21137000Y29349000D02*
X16863000Y29349000D01*
X21092000Y29309000D02*
X16908000Y29309000D01*
X21045000Y29269000D02*
X16955000Y29269000D01*
X20997000Y29229000D02*
X17003000Y29229000D01*
X20946000Y29189000D02*
X17054000Y29189000D01*
X20894000Y29149000D02*
X17106000Y29149000D01*
X20839000Y29109000D02*
X17161000Y29109000D01*
X20781000Y29069000D02*
X17219000Y29069000D01*
X20721000Y29029000D02*
X17279000Y29029000D01*
X20658000Y28989000D02*
X17342000Y28989000D01*
X20591000Y28949000D02*
X17409000Y28949000D01*
X20520000Y28909000D02*
X17480000Y28909000D01*
X20445000Y28869000D02*
X17555000Y28869000D01*
X20364000Y28829000D02*
X17636000Y28829000D01*
X20278000Y28789000D02*
X17722000Y28789000D01*
X20184000Y28749000D02*
X17816000Y28749000D01*
X20081000Y28709000D02*
X17919000Y28709000D01*
X19966000Y28669000D02*
X18034000Y28669000D01*
X19834000Y28629000D02*
X18166000Y28629000D01*
X19676000Y28589000D02*
X18324000Y28589000D01*
X19468000Y28549000D02*
X18532000Y28549000D01*
X19000000Y35200000D02*
X19000000Y34000000D01*
X19650000Y34600000D02*
X18350000Y34600000D01*
X17810000Y19690000D02*
X12690000Y19690000D01*
X17810000Y22310000D02*
X12690000Y22310000D01*
X17810000Y19690000D02*
X17810000Y22310000D01*
X12690000Y19690000D02*
X12690000Y22310000D01*
X50850000Y12720000D02*
X50850000Y12590000D01*
X50850000Y12590000D02*
X45530000Y12590000D01*
X45530000Y12590000D02*
X45530000Y12720000D01*
X50850000Y15280000D02*
X50850000Y15410000D01*
X50850000Y15410000D02*
X45530000Y15410000D01*
X45530000Y15410000D02*
X45530000Y15280000D01*
X50010000Y12590000D02*
X50010000Y15410000D01*
X46220000Y31150000D02*
X46090000Y31150000D01*
X46090000Y31150000D02*
X46090000Y36470000D01*
X46090000Y36470000D02*
X46220000Y36470000D01*
X48780000Y31150000D02*
X48910000Y31150000D01*
X48910000Y31150000D02*
X48910000Y36470000D01*
X48910000Y36470000D02*
X48780000Y36470000D01*
X46090000Y31990000D02*
X48910000Y31990000D01*
X16670000Y40440000D02*
X21870000Y40440000D01*
X21870000Y40440000D02*
X21870000Y43100000D01*
X21870000Y43100000D02*
X16670000Y43100000D01*
X16670000Y43100000D02*
X16670000Y40440000D01*
X17620000Y43100000D02*
X17620000Y49100000D01*
X17620000Y49100000D02*
X18380000Y49100000D01*
X18380000Y49100000D02*
X18380000Y43100000D01*
X17680000Y43100000D02*
X17680000Y49100000D01*
X17800000Y43100000D02*
X17800000Y49100000D01*
X17920000Y43100000D02*
X17920000Y49100000D01*
X18040000Y43100000D02*
X18040000Y49100000D01*
X18160000Y43100000D02*
X18160000Y49100000D01*
X18280000Y43100000D02*
X18280000Y49100000D01*
X17620000Y40110000D02*
X17620000Y40440000D01*
X18380000Y40110000D02*
X18380000Y40440000D01*
X19270000Y40440000D02*
X19270000Y43100000D01*
X20160000Y43100000D02*
X20160000Y49100000D01*
X20160000Y49100000D02*
X20920000Y49100000D01*
X20920000Y49100000D02*
X20920000Y43100000D01*
X20160000Y40042929D02*
X20160000Y40440000D01*
X20920000Y40042929D02*
X20920000Y40440000D01*
X18000000Y37730000D02*
X16730000Y37730000D01*
X16730000Y37730000D02*
X16730000Y39000000D01*
X6170000Y40440000D02*
X11370000Y40440000D01*
X11370000Y40440000D02*
X11370000Y43100000D01*
X11370000Y43100000D02*
X6170000Y43100000D01*
X6170000Y43100000D02*
X6170000Y40440000D01*
X7120000Y43100000D02*
X7120000Y49100000D01*
X7120000Y49100000D02*
X7880000Y49100000D01*
X7880000Y49100000D02*
X7880000Y43100000D01*
X7180000Y43100000D02*
X7180000Y49100000D01*
X7300000Y43100000D02*
X7300000Y49100000D01*
X7420000Y43100000D02*
X7420000Y49100000D01*
X7540000Y43100000D02*
X7540000Y49100000D01*
X7660000Y43100000D02*
X7660000Y49100000D01*
X7780000Y43100000D02*
X7780000Y49100000D01*
X7120000Y40110000D02*
X7120000Y40440000D01*
X7880000Y40110000D02*
X7880000Y40440000D01*
X8770000Y40440000D02*
X8770000Y43100000D01*
X9660000Y43100000D02*
X9660000Y49100000D01*
X9660000Y49100000D02*
X10420000Y49100000D01*
X10420000Y49100000D02*
X10420000Y43100000D01*
X9660000Y40042929D02*
X9660000Y40440000D01*
X10420000Y40042929D02*
X10420000Y40440000D01*
X7500000Y37730000D02*
X6230000Y37730000D01*
X6230000Y37730000D02*
X6230000Y39000000D01*
X26360000Y34550000D02*
X24640000Y34550000D01*
X24640000Y34550000D02*
X24640000Y30830000D01*
X24640000Y30830000D02*
X26360000Y30830000D01*
X26360000Y30830000D02*
X26360000Y34550000D01*
X25500000Y35620000D02*
X25500000Y34550000D01*
X25500000Y29760000D02*
X25500000Y30830000D01*
X16450000Y26860000D02*
X16450000Y25140000D01*
X16450000Y25140000D02*
X20170000Y25140000D01*
X20170000Y25140000D02*
X20170000Y26860000D01*
X20170000Y26860000D02*
X16450000Y26860000D01*
X15380000Y26000000D02*
X16450000Y26000000D01*
X21240000Y26000000D02*
X20170000Y26000000D01*
X17050000Y16140000D02*
X17050000Y17860000D01*
X17050000Y17860000D02*
X13330000Y17860000D01*
X13330000Y17860000D02*
X13330000Y16140000D01*
X13330000Y16140000D02*
X17050000Y16140000D01*
X18120000Y17000000D02*
X17050000Y17000000D01*
X12260000Y17000000D02*
X13330000Y17000000D01*
X9140000Y28950000D02*
X10860000Y28950000D01*
X10860000Y28950000D02*
X10860000Y32670000D01*
X10860000Y32670000D02*
X9140000Y32670000D01*
X9140000Y32670000D02*
X9140000Y28950000D01*
X10000000Y27880000D02*
X10000000Y28950000D01*
X10000000Y33740000D02*
X10000000Y32670000D01*
X10170000Y10310000D02*
G75*
G02X10170000Y8310000I0J-1000000D01*
G01*
X10170000Y8310000D02*
X10170000Y7060000D01*
X10170000Y7060000D02*
X20450000Y7060000D01*
X20450000Y7060000D02*
X20450000Y11560000D01*
X20450000Y11560000D02*
X10170000Y11560000D01*
X10170000Y11560000D02*
X10170000Y10310000D01*
X10110000Y4060000D02*
X20510000Y4060000D01*
X20510000Y4060000D02*
X20510000Y14560000D01*
X20510000Y14560000D02*
X10110000Y14560000D01*
X10110000Y14560000D02*
X10110000Y4060000D01*
D14*
X30666667Y6047619D02*
X30666667Y5333333D01*
X30619047Y5190476D01*
X30523809Y5095238D01*
X30380952Y5047619D01*
X30285714Y5047619D01*
X31666667Y5047619D02*
X31095238Y5047619D01*
X31380952Y5047619D02*
X31380952Y6047619D01*
X31285714Y5904762D01*
X31190476Y5809524D01*
X31095238Y5761905D01*
D15*
X45238095Y43047619D02*
X45238095Y42238095D01*
X45285714Y42142857D01*
X45333333Y42095238D01*
X45428571Y42047619D01*
X45619048Y42047619D01*
X45714286Y42095238D01*
X45761905Y42142857D01*
X45809524Y42238095D01*
X45809524Y43047619D01*
X46809524Y42047619D02*
X46238095Y42047619D01*
X46523809Y42047619D02*
X46523809Y43047619D01*
X46428571Y42904762D01*
X46333333Y42809524D01*
X46238095Y42761905D01*
X40833334Y19642857D02*
X40785715Y19595238D01*
X40642858Y19547619D01*
X40547620Y19547619D01*
X40404762Y19595238D01*
X40309524Y19690476D01*
X40261905Y19785714D01*
X40214286Y19976190D01*
X40214286Y20119048D01*
X40261905Y20309524D01*
X40309524Y20404762D01*
X40404762Y20500000D01*
X40547620Y20547619D01*
X40642858Y20547619D01*
X40785715Y20500000D01*
X40833334Y20452381D01*
X41214286Y20452381D02*
X41261905Y20500000D01*
X41357143Y20547619D01*
X41595239Y20547619D01*
X41690477Y20500000D01*
X41738096Y20452381D01*
X41785715Y20357143D01*
X41785715Y20261905D01*
X41738096Y20119048D01*
X41166667Y19547619D01*
X41785715Y19547619D01*
X40761905Y16047619D02*
X40761905Y17047619D01*
X41000000Y17047619D01*
X41142858Y17000000D01*
X41238096Y16904762D01*
X41285715Y16809524D01*
X41333334Y16619048D01*
X41333334Y16476190D01*
X41285715Y16285714D01*
X41238096Y16190476D01*
X41142858Y16095238D01*
X41000000Y16047619D01*
X40761905Y16047619D01*
X41714286Y16952381D02*
X41761905Y17000000D01*
X41857143Y17047619D01*
X42095239Y17047619D01*
X42190477Y17000000D01*
X42238096Y16952381D01*
X42285715Y16857143D01*
X42285715Y16761905D01*
X42238096Y16619048D01*
X41666667Y16047619D01*
X42285715Y16047619D01*
X54333334Y26642857D02*
X54285715Y26595238D01*
X54142858Y26547619D01*
X54047620Y26547619D01*
X53904762Y26595238D01*
X53809524Y26690476D01*
X53761905Y26785714D01*
X53714286Y26976190D01*
X53714286Y27119048D01*
X53761905Y27309524D01*
X53809524Y27404762D01*
X53904762Y27500000D01*
X54047620Y27547619D01*
X54142858Y27547619D01*
X54285715Y27500000D01*
X54333334Y27452381D01*
X55190477Y27214286D02*
X55190477Y26547619D01*
X54952381Y27595238D02*
X54714286Y26880952D01*
X55333334Y26880952D01*
X52333334Y19642857D02*
X52285715Y19595238D01*
X52142858Y19547619D01*
X52047620Y19547619D01*
X51904762Y19595238D01*
X51809524Y19690476D01*
X51761905Y19785714D01*
X51714286Y19976190D01*
X51714286Y20119048D01*
X51761905Y20309524D01*
X51809524Y20404762D01*
X51904762Y20500000D01*
X52047620Y20547619D01*
X52142858Y20547619D01*
X52285715Y20500000D01*
X52333334Y20452381D01*
X53285715Y19547619D02*
X52714286Y19547619D01*
X53000000Y19547619D02*
X53000000Y20547619D01*
X52904762Y20404762D01*
X52809524Y20309524D01*
X52714286Y20261905D01*
X49452381Y43166667D02*
X50166667Y43166667D01*
X50309524Y43119047D01*
X50404762Y43023809D01*
X50452381Y42880952D01*
X50452381Y42785714D01*
X49547619Y43595238D02*
X49500000Y43642857D01*
X49452381Y43738095D01*
X49452381Y43976191D01*
X49500000Y44071429D01*
X49547619Y44119048D01*
X49642857Y44166667D01*
X49738095Y44166667D01*
X49880952Y44119048D01*
X50452381Y43547619D01*
X50452381Y44166667D01*
X32812381Y33523334D02*
X32336190Y33190000D01*
X32812381Y32951905D02*
X31812381Y32951905D01*
X31812381Y33332858D01*
X31860000Y33428096D01*
X31907619Y33475715D01*
X32002857Y33523334D01*
X32145714Y33523334D01*
X32240952Y33475715D01*
X32288571Y33428096D01*
X32336190Y33332858D01*
X32336190Y32951905D01*
X32812381Y34475715D02*
X32812381Y33904286D01*
X32812381Y34190000D02*
X31812381Y34190000D01*
X31955238Y34094762D01*
X32050476Y33999524D01*
X32098095Y33904286D01*
X32812381Y43523334D02*
X32336190Y43190000D01*
X32812381Y42951905D02*
X31812381Y42951905D01*
X31812381Y43332858D01*
X31860000Y43428096D01*
X31907619Y43475715D01*
X32002857Y43523334D01*
X32145714Y43523334D01*
X32240952Y43475715D01*
X32288571Y43428096D01*
X32336190Y43332858D01*
X32336190Y42951905D01*
X31907619Y43904286D02*
X31860000Y43951905D01*
X31812381Y44047143D01*
X31812381Y44285239D01*
X31860000Y44380477D01*
X31907619Y44428096D01*
X32002857Y44475715D01*
X32098095Y44475715D01*
X32240952Y44428096D01*
X32812381Y43856667D01*
X32812381Y44475715D01*
X35143334Y27407619D02*
X34810000Y27883810D01*
X34571905Y27407619D02*
X34571905Y28407619D01*
X34952858Y28407619D01*
X35048096Y28360000D01*
X35095715Y28312381D01*
X35143334Y28217143D01*
X35143334Y28074286D01*
X35095715Y27979048D01*
X35048096Y27931429D01*
X34952858Y27883810D01*
X34571905Y27883810D01*
X35476667Y28407619D02*
X36095715Y28407619D01*
X35762381Y28026667D01*
X35905239Y28026667D01*
X36000477Y27979048D01*
X36048096Y27931429D01*
X36095715Y27836190D01*
X36095715Y27598095D01*
X36048096Y27502857D01*
X36000477Y27455238D01*
X35905239Y27407619D01*
X35619524Y27407619D01*
X35524286Y27455238D01*
X35476667Y27502857D01*
X43333334Y25642857D02*
X43285715Y25595238D01*
X43142858Y25547619D01*
X43047620Y25547619D01*
X42904762Y25595238D01*
X42809524Y25690476D01*
X42761905Y25785714D01*
X42714286Y25976190D01*
X42714286Y26119048D01*
X42761905Y26309524D01*
X42809524Y26404762D01*
X42904762Y26500000D01*
X43047620Y26547619D01*
X43142858Y26547619D01*
X43285715Y26500000D01*
X43333334Y26452381D01*
X43666667Y26547619D02*
X44285715Y26547619D01*
X43952381Y26166667D01*
X44095239Y26166667D01*
X44190477Y26119048D01*
X44238096Y26071429D01*
X44285715Y25976190D01*
X44285715Y25738095D01*
X44238096Y25642857D01*
X44190477Y25595238D01*
X44095239Y25547619D01*
X43809524Y25547619D01*
X43714286Y25595238D01*
X43666667Y25642857D01*
X4857143Y11833334D02*
X4904762Y11785715D01*
X4952381Y11642858D01*
X4952381Y11547620D01*
X4904762Y11404762D01*
X4809524Y11309524D01*
X4714286Y11261905D01*
X4523810Y11214286D01*
X4380952Y11214286D01*
X4190476Y11261905D01*
X4095238Y11309524D01*
X4000000Y11404762D01*
X3952381Y11547620D01*
X3952381Y11642858D01*
X4000000Y11785715D01*
X4047619Y11833334D01*
X3952381Y12738096D02*
X3952381Y12261905D01*
X4428571Y12214286D01*
X4380952Y12261905D01*
X4333333Y12357143D01*
X4333333Y12595239D01*
X4380952Y12690477D01*
X4428571Y12738096D01*
X4523810Y12785715D01*
X4761905Y12785715D01*
X4857143Y12738096D01*
X4904762Y12690477D01*
X4952381Y12595239D01*
X4952381Y12357143D01*
X4904762Y12261905D01*
X4857143Y12214286D01*
X26857143Y5333334D02*
X26904762Y5285715D01*
X26952381Y5142858D01*
X26952381Y5047620D01*
X26904762Y4904762D01*
X26809524Y4809524D01*
X26714286Y4761905D01*
X26523810Y4714286D01*
X26380952Y4714286D01*
X26190476Y4761905D01*
X26095238Y4809524D01*
X26000000Y4904762D01*
X25952381Y5047620D01*
X25952381Y5142858D01*
X26000000Y5285715D01*
X26047619Y5333334D01*
X25952381Y6190477D02*
X25952381Y6000000D01*
X26000000Y5904762D01*
X26047619Y5857143D01*
X26190476Y5761905D01*
X26380952Y5714286D01*
X26761905Y5714286D01*
X26857143Y5761905D01*
X26904762Y5809524D01*
X26952381Y5904762D01*
X26952381Y6095239D01*
X26904762Y6190477D01*
X26857143Y6238096D01*
X26761905Y6285715D01*
X26523810Y6285715D01*
X26428571Y6238096D01*
X26380952Y6190477D01*
X26333333Y6095239D01*
X26333333Y5904762D01*
X26380952Y5809524D01*
X26428571Y5761905D01*
X26523810Y5714286D01*
X14857143Y31833334D02*
X14904762Y31785715D01*
X14952381Y31642858D01*
X14952381Y31547620D01*
X14904762Y31404762D01*
X14809524Y31309524D01*
X14714286Y31261905D01*
X14523810Y31214286D01*
X14380952Y31214286D01*
X14190476Y31261905D01*
X14095238Y31309524D01*
X14000000Y31404762D01*
X13952381Y31547620D01*
X13952381Y31642858D01*
X14000000Y31785715D01*
X14047619Y31833334D01*
X13952381Y32166667D02*
X13952381Y32833334D01*
X14952381Y32404762D01*
X10333334Y20142857D02*
X10285715Y20095238D01*
X10142858Y20047619D01*
X10047620Y20047619D01*
X9904762Y20095238D01*
X9809524Y20190476D01*
X9761905Y20285714D01*
X9714286Y20476190D01*
X9714286Y20619048D01*
X9761905Y20809524D01*
X9809524Y20904762D01*
X9904762Y21000000D01*
X10047620Y21047619D01*
X10142858Y21047619D01*
X10285715Y21000000D01*
X10333334Y20952381D01*
X10904762Y20619048D02*
X10809524Y20666667D01*
X10761905Y20714286D01*
X10714286Y20809524D01*
X10714286Y20857143D01*
X10761905Y20952381D01*
X10809524Y21000000D01*
X10904762Y21047619D01*
X11095239Y21047619D01*
X11190477Y21000000D01*
X11238096Y20952381D01*
X11285715Y20857143D01*
X11285715Y20809524D01*
X11238096Y20714286D01*
X11190477Y20666667D01*
X11095239Y20619048D01*
X10904762Y20619048D01*
X10809524Y20571429D01*
X10761905Y20523810D01*
X10714286Y20428571D01*
X10714286Y20238095D01*
X10761905Y20142857D01*
X10809524Y20095238D01*
X10904762Y20047619D01*
X11095239Y20047619D01*
X11190477Y20095238D01*
X11238096Y20142857D01*
X11285715Y20238095D01*
X11285715Y20428571D01*
X11238096Y20523810D01*
X11190477Y20571429D01*
X11095239Y20619048D01*
X52761905Y16047619D02*
X52761905Y17047619D01*
X53000000Y17047619D01*
X53142858Y17000000D01*
X53238096Y16904762D01*
X53285715Y16809524D01*
X53333334Y16619048D01*
X53333334Y16476190D01*
X53285715Y16285714D01*
X53238096Y16190476D01*
X53142858Y16095238D01*
X53000000Y16047619D01*
X52761905Y16047619D01*
X54285715Y16047619D02*
X53714286Y16047619D01*
X54000000Y16047619D02*
X54000000Y17047619D01*
X53904762Y16904762D01*
X53809524Y16809524D01*
X53714286Y16761905D01*
X45542381Y33071905D02*
X44542381Y33071905D01*
X44542381Y33310000D01*
X44590000Y33452858D01*
X44685238Y33548096D01*
X44780476Y33595715D01*
X44970952Y33643334D01*
X45113810Y33643334D01*
X45304286Y33595715D01*
X45399524Y33548096D01*
X45494762Y33452858D01*
X45542381Y33310000D01*
X45542381Y33071905D01*
X44542381Y33976667D02*
X44542381Y34595715D01*
X44923333Y34262381D01*
X44923333Y34405239D01*
X44970952Y34500477D01*
X45018571Y34548096D01*
X45113810Y34595715D01*
X45351905Y34595715D01*
X45447143Y34548096D01*
X45494762Y34500477D01*
X45542381Y34405239D01*
X45542381Y34119524D01*
X45494762Y34024286D01*
X45447143Y33976667D01*
X14452381Y43166667D02*
X15166667Y43166667D01*
X15309524Y43119047D01*
X15404762Y43023809D01*
X15452381Y42880952D01*
X15452381Y42785714D01*
X14452381Y43547619D02*
X14452381Y44166667D01*
X14833333Y43833333D01*
X14833333Y43976191D01*
X14880952Y44071429D01*
X14928571Y44119048D01*
X15023810Y44166667D01*
X15261905Y44166667D01*
X15357143Y44119048D01*
X15404762Y44071429D01*
X15452381Y43976191D01*
X15452381Y43690476D01*
X15404762Y43595238D01*
X15357143Y43547619D01*
X3952381Y43166667D02*
X4666667Y43166667D01*
X4809524Y43119047D01*
X4904762Y43023809D01*
X4952381Y42880952D01*
X4952381Y42785714D01*
X4285714Y44071429D02*
X4952381Y44071429D01*
X3904762Y43833333D02*
X4619048Y43595238D01*
X4619048Y44214286D01*
X27812381Y32523334D02*
X27336190Y32190000D01*
X27812381Y31951905D02*
X26812381Y31951905D01*
X26812381Y32332858D01*
X26860000Y32428096D01*
X26907619Y32475715D01*
X27002857Y32523334D01*
X27145714Y32523334D01*
X27240952Y32475715D01*
X27288571Y32428096D01*
X27336190Y32332858D01*
X27336190Y31951905D01*
X27145714Y33380477D02*
X27812381Y33380477D01*
X26764762Y33142381D02*
X27479048Y32904286D01*
X27479048Y33523334D01*
X18333334Y23547619D02*
X18000000Y24023810D01*
X17761905Y23547619D02*
X17761905Y24547619D01*
X18142858Y24547619D01*
X18238096Y24500000D01*
X18285715Y24452381D01*
X18333334Y24357143D01*
X18333334Y24214286D01*
X18285715Y24119048D01*
X18238096Y24071429D01*
X18142858Y24023810D01*
X17761905Y24023810D01*
X19238096Y24547619D02*
X18761905Y24547619D01*
X18714286Y24071429D01*
X18761905Y24119048D01*
X18857143Y24166667D01*
X19095239Y24166667D01*
X19190477Y24119048D01*
X19238096Y24071429D01*
X19285715Y23976190D01*
X19285715Y23738095D01*
X19238096Y23642857D01*
X19190477Y23595238D01*
X19095239Y23547619D01*
X18857143Y23547619D01*
X18761905Y23595238D01*
X18714286Y23642857D01*
X21333334Y16547619D02*
X21000000Y17023810D01*
X20761905Y16547619D02*
X20761905Y17547619D01*
X21142858Y17547619D01*
X21238096Y17500000D01*
X21285715Y17452381D01*
X21333334Y17357143D01*
X21333334Y17214286D01*
X21285715Y17119048D01*
X21238096Y17071429D01*
X21142858Y17023810D01*
X20761905Y17023810D01*
X22190477Y17547619D02*
X22000000Y17547619D01*
X21904762Y17500000D01*
X21857143Y17452381D01*
X21761905Y17309524D01*
X21714286Y17119048D01*
X21714286Y16738095D01*
X21761905Y16642857D01*
X21809524Y16595238D01*
X21904762Y16547619D01*
X22095239Y16547619D01*
X22190477Y16595238D01*
X22238096Y16642857D01*
X22285715Y16738095D01*
X22285715Y16976190D01*
X22238096Y17071429D01*
X22190477Y17119048D01*
X22095239Y17166667D01*
X21904762Y17166667D01*
X21809524Y17119048D01*
X21761905Y17071429D01*
X21714286Y16976190D01*
X7952381Y30833334D02*
X7476190Y30500000D01*
X7952381Y30261905D02*
X6952381Y30261905D01*
X6952381Y30642858D01*
X7000000Y30738096D01*
X7047619Y30785715D01*
X7142857Y30833334D01*
X7285714Y30833334D01*
X7380952Y30785715D01*
X7428571Y30738096D01*
X7476190Y30642858D01*
X7476190Y30261905D01*
X6952381Y31166667D02*
X6952381Y31833334D01*
X7952381Y31404762D01*
X7952381Y5238095D02*
X8761905Y5238095D01*
X8857143Y5285714D01*
X8904762Y5333333D01*
X8952381Y5428571D01*
X8952381Y5619048D01*
X8904762Y5714286D01*
X8857143Y5761905D01*
X8761905Y5809524D01*
X7952381Y5809524D01*
X8047619Y6238095D02*
X8000000Y6285714D01*
X7952381Y6380952D01*
X7952381Y6619048D01*
X8000000Y6714286D01*
X8047619Y6761905D01*
X8142857Y6809524D01*
X8238095Y6809524D01*
X8380952Y6761905D01*
X8952381Y6190476D01*
X8952381Y6809524D01*
X3190476Y28747619D02*
X3190476Y29747619D01*
X3523810Y29033333D01*
X3857143Y29747619D01*
X3857143Y28747619D01*
X4238095Y29747619D02*
X4857143Y29747619D01*
X4523809Y29366667D01*
X4666667Y29366667D01*
X4761905Y29319048D01*
X4809524Y29271429D01*
X4857143Y29176190D01*
X4857143Y28938095D01*
X4809524Y28842857D01*
X4761905Y28795238D01*
X4666667Y28747619D01*
X4380952Y28747619D01*
X4285714Y28795238D01*
X4238095Y28842857D01*
M02*
