M48
;DRILL file {KiCad 4.0.7} date Wed Nov 22 16:37:00 2017
;FORMAT={3:3/ absolute / metric / keep zeros}
FMAT,2
METRIC,TZ
T1C0.700
T2C0.800
T3C1.000
T4C1.100
%
G90
G05
M71
T1
X010000Y034620
X010000Y027000
X011380Y017000
X014500Y026000
X019000Y017000
X022120Y026000
X025500Y036500
X025500Y028880
X030500Y047500
X030500Y039880
X030500Y037500
X030500Y029880
X031500Y026000
X039120Y026000
T2
X007000Y013000
X007000Y010500
X011500Y013120
X011500Y005500
X014000Y021000
X014040Y013120
X014040Y005500
X016500Y021000
X016580Y013120
X016580Y005500
X019000Y033000
X019000Y030500
X019120Y013120
X019120Y005500
X023500Y008000
X023500Y005500
X035000Y020000
X037500Y020000
X046500Y026000
X046500Y020000
X049000Y026000
X049000Y020000
X054500Y033000
X054500Y030500
T3
X007500Y039000
X010040Y039000
X018000Y039000
X020540Y039000
X036500Y030000
X038420Y007270
X038420Y004730
X039040Y030000
X040960Y007270
X040960Y004730
X041580Y030000
X043500Y007270
X043500Y004730
X046040Y007270
X046040Y004730
X048580Y007270
X048580Y004730
X053000Y039000
X055540Y039000
T4
X032500Y014000
X040120Y014000
X044380Y014000
X047500Y037620
X047500Y030000
X052000Y014000
T0
M30
